<svg xmlns="http://www.w3.org/2000/svg" height="511pt" viewBox="-43 0 511 511.99948" width="511pt"><path d="m240.984375 501.574219c-7.011719 3.320312-14.292969 6.441406-21.84375 9.367187-3.664063 1.410156-7.707031 1.410156-11.371094 0-199.351562-77.101562-208.40625-297.5625-207.183593-356.09375.167968-7.945312 6.285156-14.429687 14.199218-15.15625 96.230469-8.742187 159.699219-91.402344 185.546875-132.449218 6.078125-9.65625 20.167969-9.65625 26.246094 0 3.929687 6.246093 8.730469 13.453124 14.40625 21.222656 31.511719 43.265625 89.558594 103.808594 171.140625 111.226562 7.914062.726563 14.03125 7.210938 14.199219 15.15625 1.183593 56.3125-7.15625 262.523438-185.339844 346.726563zm0 0" fill="#169b62"/><path d="m240.984375 501.574219c-178.191406-84.203125-186.53125-290.414063-185.351563-346.726563.167969-7.945312 6.296876-14.429687 14.203126-15.15625 81.578124-7.417968 139.625-67.960937 171.148437-111.226562 31.511719 43.265625 89.558594 103.808594 171.140625 111.226562 7.914062.726563 14.03125 7.210938 14.199219 15.15625 1.183593 56.3125-7.15625 262.523438-185.339844 346.726563zm0 0" fill="#1ab975"/><path d="m277.09375 169.253906v86.804688c0 7.769531-6.3125 14.082031-14.082031 14.082031-7.757813 0-14.082031-6.3125-14.082031-14.082031v-86.804688c0-19.566406-15.914063-35.480468-35.480469-35.480468h-.429688c-19.363281.230468-35.046875 16.058593-35.046875 35.480468v100.886719c0 7.765625-6.320312 14.078125-14.078125 14.078125-7.769531 0-14.082031-6.3125-14.082031-14.078125v-100.886719c0-35.09375 28.550781-63.644531 63.632812-63.644531 7.160157 0 14.035157 1.183594 20.460938 3.371094 25.085938 8.542969 43.1875 32.335937 43.1875 60.273437zm0 0" fill="#def4f8"/><path d="m298.75 231.152344v163.484375c0 6.496093-5.257812 11.753906-11.753906 11.753906h-147.082032c-6.496093 0-11.753906-5.257813-11.753906-11.753906v-163.484375c0-6.492188 5.257813-11.761719 11.753906-11.761719h147.082032c6.496094 0 11.753906 5.269531 11.753906 11.761719zm0 0" fill="#a6e0ec"/><path d="m286.996094 219.390625h-113.972656c-6.496094 0-11.765626 5.269531-11.765626 11.761719v121.144531c0 29.875 24.222657 54.09375 54.105469 54.09375h71.632813c6.496094 0 11.753906-5.257813 11.753906-11.753906v-163.484375c0-6.492188-5.257812-11.761719-11.753906-11.761719zm0 0" fill="#c2eaf2"/><path d="m238.453125 295.324219c0 8.332031-4.078125 15.710937-10.339844 20.253906-.464843.332031-.863281.730469-1.195312 1.167969-.84375 1.066406-1.300781 2.398437-1.300781 3.777344v22.78125c0 7.089843-6.148438 12.808593-13.371094 12.097656-6.292969-.609375-10.953125-6.15625-10.953125-12.476563v-22.402343c0-1.972657-.960938-3.828126-2.554688-4.992188-6.816406-4.960938-11.023437-13.285156-10.175781-22.539062 1.097656-12.136719 11.109375-21.859376 23.285156-22.617188 5.574219-.347656 10.789063 1.128906 15.101563 3.914062 6.921875 4.429688 11.503906 12.199219 11.503906 21.035157zm0 0" fill="#60c8dd"/></svg>