<?xml version="1.0" encoding="iso-8859-1"?>
<!-- Generator: Adobe Illustrator 19.0.0, SVG Export Plug-In . SVG Version: 6.00 Build 0)  -->
<svg version="1.1" id="Capa_1" xmlns="http://www.w3.org/2000/svg" xmlns:xlink="http://www.w3.org/1999/xlink" x="0px" y="0px"
	 viewBox="0 0 512 512" style="enable-background:new 0 0 512 512;" xml:space="preserve">
<path style="fill:#999999;" d="M88.584,437.284v-10.936c11.216-6.368,18.792-18.392,18.792-32.208
	c0-20.456-16.584-37.048-37.048-37.048c-20.456,0-37.048,16.584-37.048,37.048c0,13.816,7.576,25.84,18.792,32.208v10.936
	C17.552,438.892,0,462.236,0,477.932c0,11.808,0,12.888,0,12.888h70.328h70.328c0,0,0-1.072,0-12.888
	C140.664,462.236,123.112,438.892,88.584,437.284z"/>
<path style="fill:#CCCCCC;" d="M274.256,437.284v-10.936c11.216-6.368,18.792-18.392,18.792-32.208
	c0-20.456-16.584-37.048-37.048-37.048c-20.456,0-37.048,16.584-37.048,37.048c0,13.816,7.576,25.84,18.792,32.208v10.936
	c-34.52,1.616-52.08,24.96-52.08,40.648c0,11.808,0,12.888,0,12.888H256h70.328c0,0,0-1.072,0-12.888
	C326.328,462.236,308.776,438.892,274.256,437.284z"/>
<path style="fill:#DBDBDB;" d="M459.92,437.284v-10.936c11.216-6.368,18.792-18.392,18.792-32.208
	c0-20.456-16.584-37.048-37.048-37.048c-20.456,0-37.048,16.584-37.048,37.048c0,13.816,7.576,25.84,18.792,32.208v10.936
	c-34.52,1.616-52.08,24.96-52.08,40.648c0,11.808,0,12.888,0,12.888h70.328H512c0,0,0-1.072,0-12.888
	C512,462.236,494.448,438.892,459.92,437.284z"/>
<g>
	<path style="fill:#999999;" d="M445.672,327.42h-8v-9.584h8V327.42z M445.672,305.836h-8v-12h8V305.836z M445.672,281.844h-8v-12h8
		V281.844z M445.672,257.844h-8v-12h8V257.844z M445.672,233.844h-8v-12h8V233.844z M445.672,209.844h-8v-12h8V209.844z
		 M445.672,185.844h-8v-12h8V185.844z M435.976,171.54h-12v-8h12V171.54z M411.976,171.54h-12v-8h12V171.54z M387.976,171.54h-12v-8
		h12V171.54z M363.976,171.54h-12v-8h12V171.54z"/>
	<path style="fill:#999999;" d="M73.296,327.42h-8v-9.584h8V327.42z M73.296,305.836h-8v-12h8V305.836z M73.296,281.844h-8v-12h8
		V281.844z M73.296,257.844h-8v-12h8V257.844z M73.296,233.844h-8v-12h8V233.844z M73.296,209.844h-8v-12h8V209.844z
		 M73.296,185.844h-8v-12h8V185.844z M158.992,171.54h-12v-8h12V171.54z M134.992,171.54h-12v-8h12V171.54z M110.992,171.54h-12v-8
		h12V171.54z M86.992,171.54h-12v-8h12V171.54z"/>
</g>
<path style="fill:#FF0000;" d="M261.936,21.18c-43.192,45.384-114.928,35.136-114.928,35.136s0,50.512,0,122.976
	s114.928,122.976,114.928,122.976s114.928-50.512,114.928-122.976s0-122.976,0-122.976S305.12,66.564,261.936,21.18z"/>
<g style="opacity:0.2;">
	<path d="M261.936,61.636c-30.76,32.32-81.84,25.024-81.84,25.024s0,35.968,0,87.576s81.84,87.576,81.84,87.576
		s81.84-35.968,81.84-87.576s0-87.576,0-87.576S292.688,93.956,261.936,61.636z"/>
</g>
<g style="opacity:0.25;">
	<path style="fill:#FFFFFF;" d="M261.936,21.18c-43.192,45.384-114.928,35.136-114.928,35.136v92.52l229.848-72.592V56.316
		C376.856,56.316,305.12,66.564,261.936,21.18z"/>
</g>
<path style="fill:#FFFFFF;" d="M292.504,155.492H282.6v-35.688c0.112-11.408-9.048-20.752-20.456-20.864
	c-11.408-0.112-20.752,9.048-20.864,20.456c0,0.136,0,0.272,0,0.408v35.688h-9.904v-35.688c-0.136-16.88,13.44-30.672,30.32-30.808
	s30.672,13.44,30.808,30.32c0,0.168,0,0.328,0,0.496L292.504,155.492L292.504,155.492z"/>
<g style="opacity:0.25;">
	<rect x="282.56" y="145.036" width="9.904" height="3.96"/>
</g>
<g style="opacity:0.25;">
	<rect x="231.368" y="145.036" width="9.904" height="3.96"/>
</g>
<rect x="222.208" y="149.004" width="79.464" height="50.456"/>
<rect x="217.6" y="199.46" width="88.64" height="16.512"/>
<g>
	<circle style="fill:#FFFFFF;" cx="261.936" cy="175.356" r="9.912"/>
	<rect x="257.68" y="180.684" style="fill:#FFFFFF;" width="8.456" height="18.12"/>
</g>
<g>
</g>
<g>
</g>
<g>
</g>
<g>
</g>
<g>
</g>
<g>
</g>
<g>
</g>
<g>
</g>
<g>
</g>
<g>
</g>
<g>
</g>
<g>
</g>
<g>
</g>
<g>
</g>
<g>
</g>
</svg>
