<svg width="100%" height="100%" viewBox="0 0 76 76" version="1.1" xmlns="http://www.w3.org/2000/svg" xmlns:xlink="http://www.w3.org/1999/xlink" xml:space="preserve" style="fill-rule: evenodd; clip-rule: evenodd; stroke-linejoin: round; stroke-miterlimit: 1.41421; pointer-events: none; display: block;" fit="" preserveAspectRatio="xMidYMid meet"><g id="SALUD ID" transform="matrix(0.517881,-1.2326e-32,-1.84889e-32,0.517881,6.8265,4.23474)"><clipPath id="tag1"><rect x="5.33324" y="3.71127" width="118.27" height="120.562"></rect></clipPath><g clip-path="url(#tag1)"><g><g transform="matrix(1,0,0,1,9,0)"><path d="M85.6033,66.2734c16.0163,0 29,12.9837 29,29c0,16.0163 -12.9837,29 -29,29c-16.0163,0 -29,-12.9837 -29,-29c0,-16.0163 12.9837,-29 29,-29ZM85.6,71.3c13.2548,0 24,10.7452 24,24c0,13.2548 -10.7452,24 -24,24c-13.2548,0 -24,-10.7452 -24,-24c0,-13.2548 10.7452,-24 24,-24Z" style="fill:#fff;"></path><g transform="matrix(1.35951,0,0,1.35951,-27.0706,-33.8865)"><path d="M87.0015,102.097l0,7.0718l-8,0l0,-7.0718l-6.12436,3.5359l-4,-6.9282l6.12436,-3.5359l-6.12436,-3.5359l4,-6.9282l6.12436,3.5359l0,-7.0718l8,0l0,7.0718l6.12436,-3.5359l4,6.9282l-6.12436,3.5359l6.12436,3.5359l-4,6.9282l-6.12436,-3.5359Z" style="fill:#fff;"></path></g></g><g transform="matrix(1.93095,4.5958e-32,6.8937e-32,1.93095,-13.1816,-8.17706)"><g><path d="M30.6078,67.8605c-0.186176,-0.00289747 -0.367176,-0.0388766 -0.536412,-0.118233c-0.10638,-0.0498827 -0.205619,-0.114822 -0.293921,-0.192331c-0.332444,-0.291815 -0.487754,-0.750034 -0.401257,-1.18385c0.0295469,-0.148188 0.0861609,-0.290736 0.166336,-0.418816c0.0991773,-0.158437 0.231758,-0.286804 0.386624,-0.390179c0.256151,-0.156454 0.517248,-0.305076 0.77412,-0.460447c0.699272,-0.428606 1.38731,-0.875861 2.04343,-1.36862c0.492992,-0.370244 0.969459,-0.764927 1.40782,-1.19901c0.15745,-0.155912 0.309838,-0.317022 0.455126,-0.48435c0.081146,-0.0934552 0.157881,-0.190386 0.23735,-0.285214c0.0341242,-0.0375388 0.033863,-0.0372515 0.0691986,-0.0731093c0.14837,-0.138903 0.320304,-0.244716 0.515925,-0.302937c0.112613,-0.033516 0.229909,-0.0510402 0.3474,-0.0519021c0.44234,-0.00324482 0.863107,0.235587 1.08709,0.617042c0.0765101,0.130303 0.129059,0.274399 0.154391,0.423365c0.0253323,0.148966 0.0233686,0.302332 -0.00576934,0.450601c-0.036044,0.18341 -0.114029,0.350665 -0.221755,0.502536c-0.0732151,0.0948776 -0.150031,0.186781 -0.227157,0.278485c-0.929661,1.0819 -2.05512,1.97557 -3.23156,2.77463c-0.436161,0.296248 -0.880999,0.579609 -1.33132,0.853805c-0.269555,0.16413 -0.539656,0.329152 -0.815419,0.482693c-0.0449349,0.0226989 -0.0445815,0.0225379 -0.0907473,0.04357c-0.126201,0.0514639 -0.253395,0.0834326 -0.388932,0.0977533c-0.0502364,0.00326955 -0.0498482,0.00325996 -0.100564,0.00451364ZM39.7421,59.3834c-0.0694229,-0.0490557 -0.138587,-0.0983797 -0.207596,-0.147897c-1.05245,-0.755187 -2.06764,-1.56049 -3.06073,-2.39182l-0.0975023,-0.0824414c-0.272402,0.217042 -0.545744,0.432842 -0.819539,0.648124c-0.241472,0.188492 -0.483333,0.376488 -0.725506,0.56408c-1.90024,1.45988 -3.83234,2.88147 -5.83708,4.19544c-0.703549,0.461128 -1.41619,0.90885 -2.14263,1.33311c-0.823632,0.481019 -1.66508,0.932162 -2.53778,1.31797l-0.0936333,0.0369624c-0.0321013,0.00976941 -0.0638353,0.0208393 -0.0963039,0.0293082c-0.0867002,0.0226143 -0.10953,0.0229748 -0.198108,0.0349444c-0.0335065,0.00180319 -0.0670129,0.00360638 -0.100519,0.00540957c-0.0893509,-0.00239423 -0.112088,-0.000302455 -0.200714,-0.0134814c-0.199441,-0.0296572 -0.390713,-0.10812 -0.553527,-0.227065c-0.108441,-0.0792226 -0.203904,-0.175964 -0.281678,-0.285449c-0.215643,-0.303572 -0.284935,-0.696407 -0.18617,-1.05544c0.0356207,-0.129487 0.0922238,-0.253052 0.167016,-0.364595c0.0747919,-0.111543 0.167611,-0.210824 0.273876,-0.292943c0.0708984,-0.0547883 0.0917602,-0.0640685 0.168558,-0.1098c0.205411,-0.100885 0.416261,-0.190857 0.622757,-0.289712c0.949729,-0.462668 1.86427,-0.993926 2.7605,-1.55241c0.96091,-0.598788 1.90104,-1.23068 2.82842,-1.88001c1.18161,-0.827336 2.34238,-1.68437 3.48811,-2.56063c0.910142,-0.696082 1.81255,-1.4031 2.69881,-2.12944l0.0782828,-0.0591767c0.0836832,-0.0534923 0.166297,-0.102036 0.259192,-0.138328c0.27547,-0.107621 0.585621,-0.113538 0.864995,-0.0165031c0.125877,0.0437206 0.236064,0.108657 0.344762,0.184489c0.102605,0.0842815 0.200599,0.172896 0.300669,0.260363c0.143974,0.125842 0.289428,0.24996 0.434864,0.374103c0.313932,0.26544 0.630265,0.528033 0.949601,0.787076c0.153366,1.32757 0.458868,2.6088 0.898601,3.82575ZM38.8908,51.2187c-0.22331,-0.216458 -0.443915,-0.435632 -0.661005,-0.658543c-0.44159,-0.45343 -0.868266,-0.920332 -1.28753,-1.39438l-0.0632802,-0.072756c-0.515415,0.41173 -1.00138,0.86025 -1.48788,1.30528c-0.542068,0.495873 -1.08304,0.992912 -1.62762,1.48604c-0.269612,0.242738 -0.540027,0.484503 -0.811347,0.725332c-1.09238,0.961483 -2.2046,1.89993 -3.35425,2.79245c-1.8703,1.452 -3.83229,2.78929 -5.89609,3.95172c-0.773285,0.435551 -1.56048,0.846517 -2.36118,1.2294c-0.245541,0.117416 -0.492339,0.232203 -0.740372,0.344258c-0.140941,0.0636736 -0.284452,0.136955 -0.435434,0.177039c-0.086601,0.0229916 -0.109429,0.0234514 -0.197954,0.0358067c-0.0334983,0.00194906 -0.0669966,0.00389812 -0.100495,0.00584717c-0.0893604,-0.00200517 -0.112088,0.000185571 -0.200771,-0.0126073c-0.199568,-0.0287885 -0.39118,-0.106417 -0.55451,-0.224652c-0.329849,-0.238778 -0.52584,-0.633481 -0.516705,-1.04058c0.00301276,-0.134263 0.0278186,-0.267893 0.0731932,-0.394292c0.0453746,-0.1264 0.11122,-0.245297 0.194286,-0.350823c0.0830662,-0.105526 0.183174,-0.197453 0.295382,-0.271244c0.0748635,-0.0492321 0.0963712,-0.0568973 0.176428,-0.0966496c0.233974,-0.104658 0.467036,-0.210932 0.699449,-0.319012c0.828256,-0.392449 1.64314,-0.810908 2.44177,-1.26074c2.26465,-1.27556 4.40323,-2.77288 6.4226,-4.40734c1.00022,-0.809571 1.97559,-1.64845 2.93329,-2.50781c0.828402,-0.74333 1.64231,-1.50258 2.46913,-2.24764c0.179156,-0.159894 0.359111,-0.318682 0.540483,-0.476057c0.164811,-0.140214 0.163804,-0.14047 0.331088,-0.278362c0.104045,-0.0857638 0.209899,-0.169489 0.317284,-0.251029c0.482246,-0.366179 1.04088,-0.725724 1.67134,-0.699832c0.0861989,0.00354014 0.172166,0.0139189 0.256559,0.0319549c0.126078,0.026945 0.248611,0.0699381 0.363452,0.128624c0.149929,0.0766164 0.276814,0.178685 0.395981,0.296432c0.153531,0.172598 0.299807,0.352239 0.450001,0.52779c0.303188,0.348588 0.610555,0.693215 0.925603,1.03109c-0.300887,0.932635 -0.523778,1.90032 -0.660921,2.8953ZM16.1529,56.6794c-0.194263,-0.00806466 -0.381447,-0.0510027 -0.554669,-0.14127c-0.398277,-0.207544 -0.659373,-0.624825 -0.671861,-1.07376c-0.00374794,-0.134737 0.014464,-0.269944 0.0537285,-0.398888c0.0448819,-0.14739 0.117193,-0.286155 0.212288,-0.40738c0.120559,-0.153686 0.273361,-0.270017 0.446998,-0.357501c0.229669,-0.102704 0.463234,-0.19731 0.69394,-0.297773c1.44629,-0.640813 2.85909,-1.35719 4.22552,-2.1546c0.378398,-0.220822 0.753106,-0.448042 1.12272,-0.683281c0.18954,-0.120631 0.375091,-0.247612 0.565149,-0.367337c0.0506129,-0.0287068 0.0502281,-0.0284885 0.101718,-0.0546269c0.177251,-0.0799092 0.363812,-0.125473 0.55912,-0.122473c0.154054,0.00236627 0.307406,0.0334775 0.450202,0.0913348c0.378832,0.153493 0.664188,0.491771 0.751649,0.891051c0.0247179,0.112843 0.0336896,0.229067 0.026583,0.344366c-0.00829217,0.134533 -0.0384986,0.267576 -0.0891145,0.3925c-0.0882227,0.217741 -0.235286,0.397338 -0.420633,0.539573c-0.135246,0.0941923 -0.274355,0.182883 -0.412412,0.272862c-1.01748,0.652658 -2.06492,1.25636 -3.13535,1.81788c-1.11642,0.585648 -2.25638,1.12419 -3.41882,1.61212c-0.0541583,0.0212749 -0.0537465,0.0211132 -0.108411,0.0397216c-0.0746927,0.0216327 -0.148512,0.0375682 -0.225477,0.0486741c-0.0579448,0.00564474 -0.114668,0.00853501 -0.172887,0.0088092ZM13.8315,51.4262c-0.0757918,-0.00166391 -0.0949815,-0.000143172 -0.170338,-0.00956563c-0.141234,-0.0176598 -0.279245,-0.0596165 -0.40641,-0.123553c-0.127165,-0.0639365 -0.243157,-0.149688 -0.341569,-0.252518c-0.078714,-0.0822478 -0.146084,-0.17526 -0.199689,-0.275695c-0.203593,-0.381454 -0.193245,-0.852829 0.0268929,-1.22498c0.101535,-0.171649 0.244286,-0.317926 0.413408,-0.423618c0.064401,-0.0402472 0.08245,-0.0469398 0.15051,-0.0803317c0.176933,-0.0722793 0.357633,-0.13574 0.536211,-0.203905c0.388596,-0.153117 0.774257,-0.312578 1.15567,-0.482897c1.07255,-0.478944 2.11489,-1.02472 3.13032,-1.61469c0.999885,-0.580945 1.97413,-1.20592 2.92298,-1.86683c2.49644,-1.73887 4.835,-3.72132 6.88785,-5.96952l0.0596714,-0.061028c0.0565755,-0.0504617 0.0695756,-0.0646587 0.131123,-0.109148c0.115353,-0.0833829 0.244914,-0.146795 0.38153,-0.186734c0.163993,-0.0479429 0.337516,-0.0617732 0.507032,-0.040412c0.399484,0.0503398 0.757795,0.297277 0.947044,0.652673c0.0535087,0.100486 0.0931828,0.208264 0.117596,0.31946c0.0305231,0.139023 0.0370679,0.283121 0.0192728,0.424339c-0.0249336,0.197867 -0.0977727,0.388836 -0.210943,0.553048c-0.0430947,0.0625314 -0.0569959,0.0758474 -0.106173,0.133543c-0.191436,0.209652 -0.191074,0.209212 -0.384046,0.416938c-0.402171,0.425696 -0.811342,0.844195 -1.23164,1.25206c-1.09382,1.06147 -2.24772,2.06091 -3.44526,3.00354c-0.974642,0.767176 -1.97905,1.49674 -3.01066,2.18543c-1.0922,0.729132 -2.21521,1.41309 -3.37008,2.03848c-1.00492,0.544184 -2.03451,1.0448 -3.09136,1.48023c-0.331138,0.136432 -0.665304,0.264391 -1.00125,0.388422l-0.0810326,0.0268108c-0.0826733,0.0212185 -0.0823847,0.0211651 -0.166602,0.0367456c-0.0850841,0.00979706 -0.0847925,0.00976349 -0.170054,0.0137178ZM40.544,45.9038c-0.501175,-0.562945 -0.981449,-1.14468 -1.44476,-1.73913c-0.275421,-0.353379 -0.544901,-0.711372 -0.809308,-1.07306c-0.139758,-0.191179 -0.274824,-0.385902 -0.4177,-0.574769c-0.0434894,-0.0552294 -0.0877602,-0.109382 -0.133494,-0.162766c-0.102608,-0.114572 -0.21078,-0.22476 -0.336853,-0.313785c-0.0820786,-0.0579586 -0.172536,-0.107423 -0.270953,-0.130669c-0.109027,-0.0257523 -0.222823,-0.0163493 -0.331397,0.00696288c-0.173594,0.037273 -0.33953,0.107858 -0.49748,0.187548c-0.269492,0.135966 -0.522162,0.304432 -0.765476,0.482359c-0.296103,0.21653 -0.579438,0.450319 -0.856541,0.690494c-0.175703,0.152288 -0.348791,0.307578 -0.520282,0.464586c-0.252629,0.231293 -0.501156,0.466922 -0.749062,0.70325c-0.80115,0.769553 -1.59114,1.55061 -2.39048,2.32204c-0.860022,0.82556 -1.73232,1.63683 -2.62669,2.42514l-0.0802606,0.0650515c-0.0757875,0.0516756 -0.0934243,0.0671432 -0.175231,0.109155c-0.122612,0.0629676 -0.255573,0.105424 -0.391987,0.125168c-0.485956,0.0703342 -0.980423,-0.159425 -1.24004,-0.576198c-0.0728777,-0.116993 -0.126169,-0.245994 -0.15711,-0.380312c-0.0309413,-0.134318 -0.0394587,-0.273633 -0.0251106,-0.41072c0.0251578,-0.240366 0.121076,-0.471317 0.273605,-0.658783c0.0580407,-0.0713351 0.076825,-0.0853869 0.143073,-0.148832c0.181613,-0.160076 0.362746,-0.320699 0.543362,-0.4819c0.514071,-0.464254 1.02259,-0.934297 1.52466,-1.41152c0.898526,-0.854074 1.77962,-1.72625 2.66999,-2.58878c0.200233,-0.192336 0.401124,-0.383901 0.602967,-0.574546c0.255103,-0.238315 0.511187,-0.475471 0.772663,-0.706812c0.214595,-0.189863 0.432211,-0.376364 0.654539,-0.55713c0.151131,-0.122878 0.304421,-0.243131 0.460535,-0.359623c0.120708,-0.0900727 0.24308,-0.177933 0.367472,-0.262852c0.766489,-0.523259 1.6426,-0.959082 2.58863,-0.978913c0.148942,-0.00312217 0.298101,0.00405423 0.445993,0.0220667c0.225532,0.0274684 0.447776,0.0801052 0.661785,0.156365c0.288242,0.102712 0.560148,0.247997 0.810008,0.424245c0.4231,0.298449 0.77233,0.680149 1.08331,1.09124c0.178514,0.245316 0.355296,0.491815 0.535055,0.736233c0.463836,0.622924 0.940986,1.23561 1.44122,1.82932c-0.507998,0.711304 -0.962818,1.4632 -1.35864,2.24988ZM12.275,46.4918c-0.175917,-0.0062847 -0.346427,-0.0413184 -0.50677,-0.115564c-0.142613,-0.0660354 -0.272392,-0.159106 -0.38068,-0.273003c-0.317483,-0.333927 -0.425919,-0.829018 -0.27708,-1.26508c0.039473,-0.115647 0.0959828,-0.225386 0.167197,-0.324687c0.123818,-0.172654 0.287736,-0.304047 0.47659,-0.399254c0.236932,-0.107248 0.47717,-0.20743 0.714507,-0.313902c1.18728,-0.540229 2.35256,-1.13014 3.48953,-1.76963c0.256637,-0.144345 0.511724,-0.291476 0.764535,-0.442428c0.153308,-0.0915394 0.304023,-0.187489 0.457775,-0.278228c0.0461641,-0.0246988 0.045801,-0.0245236 0.093322,-0.0474427c0.177889,-0.0767866 0.365254,-0.118616 0.559717,-0.112327c0.460523,0.0148932 0.885331,0.291318 1.08549,0.706335c0.0530838,0.110065 0.0898881,0.227885 0.108894,0.348595c0.0217237,0.137973 0.0201129,0.279453 -0.00474639,0.416895c-0.0279717,0.15465 -0.0853398,0.303693 -0.168278,0.437185c-0.102678,0.165265 -0.241447,0.297925 -0.404039,0.403303c-0.200168,0.123857 -0.401535,0.245513 -0.603985,0.365601c-0.812033,0.475639 -1.63922,0.924623 -2.47829,1.35072c-0.84849,0.43088 -1.70871,0.838156 -2.58372,1.21236c-0.0489333,0.0197246 -0.0485594,0.0195739 -0.0978959,0.0370972c-0.101296,0.0312672 -0.201831,0.0510897 -0.307415,0.060613c-0.0526983,0.00253492 -0.0522956,0.00251555 -0.104651,0.00283899ZM43.4861,41.7449c-0.710616,-0.749114 -1.37542,-1.54352 -1.94728,-2.40444c-0.407114,-0.612905 -0.769825,-1.26025 -1.03921,-1.94606c-0.186609,-0.475074 -0.326506,-0.969183 -0.445321,-1.46513c-0.218473,-0.911933 -0.352277,-1.84089 -0.468661,-2.77056c-0.108144,-0.900472 -0.200179,-1.80275 -0.305398,-2.70356c-0.0433292,-0.358373 -0.0879482,-0.716541 -0.138835,-1.07394c-0.277293,-1.9475 -0.719238,-3.92632 -1.76018,-5.62191c-0.198465,-0.323279 -0.417327,-0.634041 -0.656018,-0.928897c-0.363364,-0.448864 -0.7724,-0.859938 -1.21706,-1.22832c-0.15713,-0.130176 -0.318023,-0.255733 -0.486167,-0.371414c-0.300874,-0.206997 -0.620835,-0.385532 -0.951362,-0.5405c-1.17754,-0.55209 -2.47086,-0.811123 -3.75575,-0.957674l-0.104814,-0.0164872c-0.0914795,-0.0224766 -0.115437,-0.0252744 -0.203559,-0.0592804c-0.231615,-0.0893799 -0.434011,-0.248241 -0.575856,-0.451992c-0.0808836,-0.116184 -0.141765,-0.246066 -0.179323,-0.382559c-0.0375579,-0.136493 -0.0516931,-0.279238 -0.0416344,-0.420446c0.0332002,-0.466077 0.333696,-0.884321 0.764815,-1.06451c0.130617,-0.0545907 0.27041,-0.0867426 0.411752,-0.0947013c0.0943063,-0.00531021 0.117966,-0.000617893 0.211928,0.00607534c0.166011,0.0189349 0.331727,0.0392796 0.497406,0.0609277c1.31257,0.183422 2.61527,0.48546 3.83079,1.02342c0.49178,0.21765 0.967375,0.473097 1.41484,0.771762c0.2645,0.176541 0.517131,0.369375 0.761965,0.572213c0.614445,0.509051 1.17544,1.08202 1.66824,1.70969c0.332674,0.42372 0.634058,0.871747 0.903271,1.33832c0.890737,1.54374 1.40695,3.26639 1.73145,5.0105c0.2991,1.60761 0.441675,3.23811 0.629932,4.8609c0.0306382,0.255112 0.0625112,0.509981 0.0959625,0.764739c0.0972823,0.702546 0.208213,1.40394 0.379619,2.09273c0.0863102,0.346838 0.184165,0.693623 0.314983,1.0266c0.230728,0.58729 0.556861,1.13601 0.914712,1.65391c0.477207,0.690631 1.02234,1.33108 1.60364,1.93598c-0.659896,0.512577 -1.28122,1.07245 -1.85887,1.67462ZM21.1869,41.2158c-0.0731508,-0.00302179 -0.144707,-0.00801334 -0.216812,-0.0216363c-0.142971,-0.0270116 -0.280988,-0.0791607 -0.406099,-0.153442c-0.104239,-0.0618898 -0.199345,-0.138994 -0.281455,-0.228179c-0.316952,-0.344266 -0.415102,-0.850724 -0.249703,-1.28847c0.0697953,-0.18472 0.182168,-0.340681 0.322665,-0.477792c0.200216,-0.173848 0.408327,-0.339014 0.610669,-0.510479c0.52174,-0.447192 1.03106,-0.908178 1.52377,-1.38724c1.19389,-1.16081 2.29566,-2.41719 3.28464,-3.75704c0.490876,-0.665031 0.95389,-1.35086 1.38381,-2.05687c0.348286,-0.57196 0.675697,-1.15733 0.971399,-1.75829c0.0885283,-0.179916 0.173964,-0.361371 0.254967,-0.544805c0.041307,-0.0935408 0.0791588,-0.188472 0.120303,-0.282062l0.0330835,-0.0647494c0.0993352,-0.169326 0.223726,-0.315882 0.386264,-0.428017c0.139764,-0.0964243 0.299053,-0.163826 0.465578,-0.197007c0.118891,-0.0236891 0.241164,-0.0299589 0.361854,-0.0185546c0.389947,0.0368469 0.747533,0.260853 0.950837,0.595642c0.0629234,0.103618 0.110635,0.216374 0.141197,0.333686c0.0428069,0.164315 0.0516642,0.337049 0.0258885,0.504881c-0.0111393,0.0725306 -0.0302357,0.141672 -0.0517202,0.211662c-0.0291093,0.078281 -0.0607968,0.15504 -0.0931867,0.232034c-0.300722,0.693121 -0.648342,1.36517 -1.02213,2.02153c-0.446012,0.78318 -0.930984,1.54413 -1.44752,2.28263c-1.25494,1.79423 -2.69602,3.45784 -4.28178,4.96719c-0.590747,0.562286 -1.20274,1.10092 -1.83084,1.62104l-0.148693,0.121709c-0.135886,0.104777 -0.282057,0.18704 -0.447874,0.234486c-0.0705497,0.020187 -0.141345,0.0317286 -0.213909,0.0414552c-0.0730536,0.00549444 -0.072507,0.00545333 -0.145208,0.00668153ZM11.1815,40.5239c-0.0941134,-0.00404551 -0.118153,-0.00207671 -0.211242,-0.0180868c-0.174471,-0.0300068 -0.341995,-0.0974218 -0.488618,-0.19663c-0.386995,-0.261848 -0.598888,-0.731239 -0.539304,-1.19468c0.0180523,-0.14041 0.060125,-0.277544 0.123922,-0.40392c0.111881,-0.221624 0.290007,-0.40729 0.506806,-0.528257c0.108791,-0.0607021 0.22554,-0.0986263 0.34258,-0.139912c0.190106,-0.0686515 0.379306,-0.139319 0.56784,-0.212177c0.452333,-0.178661 0.899095,-0.37017 1.33779,-0.580255c0.777843,-0.3725 1.53027,-0.797793 2.24997,-1.27305c1.37342,-0.906948 2.61714,-1.99526 3.73838,-3.1984c0.723859,-0.776737 1.39684,-1.59914 2.04043,-2.44315c0.726823,-0.95316 1.41666,-1.93375 2.12266,-2.90225c0.15794,-0.214058 0.316127,-0.427702 0.476259,-0.640103c0.157538,-0.206717 0.316011,-0.412654 0.478339,-0.615647c0.158651,-0.198394 0.320303,-0.394416 0.486239,-0.586769c0.812088,-0.941373 1.74518,-1.82186 2.8869,-2.3465c0.422832,-0.194301 0.869218,-0.336536 1.32753,-0.417914c0.447057,-0.0793808 0.903364,-0.100769 1.35621,-0.0701781c0.783671,0.0529383 1.55023,0.259055 2.278,0.548917c0.483335,0.192507 0.95282,0.419217 1.38587,0.70903c0.382686,0.256106 0.735474,0.557309 1.04187,0.901386c0.320685,0.360121 0.588754,0.765941 0.793944,1.20232c0.093381,0.198594 0.173807,0.403228 0.241391,0.612003c0.444253,1.37236 0.316184,2.86098 -0.0507463,4.23499c-0.0629451,0.235705 -0.133249,0.469429 -0.209811,0.701062c-0.0920883,0.278609 -0.193245,0.554195 -0.301953,0.826739c-0.145163,0.363945 -0.303796,0.722468 -0.473192,1.07576c-0.216747,0.452052 -0.451137,0.895571 -0.699253,1.33116c-0.308404,0.541436 -0.638065,1.07069 -0.984128,1.58882c-0.0547886,0.0820306 -0.11,0.16378 -0.165603,0.245261c-0.0929891,0.136268 -0.183804,0.284545 -0.30053,0.404054c-0.0989157,0.101275 -0.215044,0.185478 -0.342048,0.248015c-0.127004,0.0625368 -0.26455,0.103243 -0.405133,0.119898c-0.140583,0.0166545 -0.283833,0.00921346 -0.421933,-0.0219171c-0.383425,-0.0864315 -0.710463,-0.355638 -0.86897,-0.715306c-0.0428083,-0.0971364 -0.073162,-0.199701 -0.0901128,-0.30449c-0.039644,-0.245077 -0.00455415,-0.499969 0.0998374,-0.725217c0.0397175,-0.0856994 0.0549967,-0.104363 0.105142,-0.184107c0.156568,-0.226999 0.15629,-0.226519 0.310361,-0.454701c0.870983,-1.31848 1.66585,-2.71211 2.16378,-4.21853c0.154728,-0.468103 0.279417,-0.947692 0.351926,-1.43573c0.0559891,-0.376847 0.0809984,-0.760018 0.0540539,-1.14053c-0.039213,-0.553772 -0.197334,-1.10153 -0.531224,-1.55129c-0.236316,-0.318328 -0.546619,-0.573906 -0.887112,-0.774132c-0.21106,-0.124113 -0.433896,-0.225878 -0.660096,-0.318987c-0.767503,-0.315921 -1.62373,-0.530933 -2.45225,-0.353356c-0.283703,0.0608062 -0.556102,0.166149 -0.81156,0.303075c-0.374715,0.200848 -0.712675,0.464916 -1.02481,0.752014c-0.373155,0.343221 -0.712312,0.722307 -1.03539,1.11246c-0.385549,0.465599 -0.748441,0.949573 -1.10584,1.43693c-0.407335,0.555452 -0.807417,1.1162 -1.21144,1.67406c-0.219271,0.300376 -0.43924,0.600159 -0.661635,0.898231c-0.476495,0.633484 -0.963443,1.25889 -1.47414,1.86529c-0.721579,0.856807 -1.48745,1.67693 -2.30837,2.43953c-1.26801,1.17791 -2.66629,2.21348 -4.17513,3.06252c-1.13683,0.639707 -2.33033,1.1677 -3.55999,1.60146l-0.101468,0.0310181c-0.103735,0.0223017 -0.10339,0.0222576 -0.208983,0.0357251c-0.0353366,0.0014832 -0.0706731,0.00296639 -0.10601,0.00444959ZM47.6849,38.5415c-0.485022,-0.564179 -0.90006,-1.18672 -1.23909,-1.84931c-0.363585,-0.710596 -0.639297,-1.46322 -0.84977,-2.2325c-0.359567,-1.31421 -0.52855,-2.66864 -0.677464,-4.01991l-0.00579049,-0.0711549c-0.00173035,-0.0718447 -0.00146343,-0.142303 0.00706721,-0.213821c0.0197447,-0.165531 0.0729098,-0.326696 0.155533,-0.471485c0.202768,-0.355328 0.576516,-0.593162 0.98428,-0.626345c0.11863,-0.00965393 0.238568,-0.00225638 0.355112,0.0219026c0.139878,0.0289959 0.274563,0.0821297 0.396562,0.156445c0.14237,0.0867246 0.266885,0.202036 0.364267,0.33734c0.113191,0.157271 0.180664,0.333551 0.218082,0.522561c0.021569,0.15494 0.0360651,0.310783 0.0534329,0.46625c0.0214717,0.192203 0.0448354,0.384175 0.0684538,0.576123c0.0319585,0.249614 0.0650146,0.49904 0.102421,0.747906c0.231873,1.54266 0.608914,3.11089 1.49701,4.4185c0.21376,0.314738 0.454316,0.611026 0.718064,0.885224c0.0900003,0.0935661 0.182626,0.184493 0.277655,0.272582c-0.840774,0.297897 -1.6513,0.659735 -2.42582,1.07969ZM10.802,35.3959c-0.0740557,-0.00462779 -0.092872,-0.00394011 -0.166215,-0.0159775c-0.137463,-0.0225608 -0.27096,-0.0682541 -0.393416,-0.134658c-0.097947,-0.0531132 -0.188702,-0.119364 -0.269137,-0.196467c-0.284303,-0.272528 -0.425336,-0.672947 -0.374574,-1.06349c0.0179549,-0.13814 0.0591619,-0.27309 0.121437,-0.397696c0.0747525,-0.149574 0.179665,-0.283644 0.306878,-0.392167c0.0565449,-0.0482372 0.0730045,-0.0573809 0.133991,-0.099645c0.160014,-0.0957373 0.32444,-0.184148 0.485463,-0.278282c0.44629,-0.267797 0.879234,-0.555389 1.29641,-0.86675c1.01763,-0.759515 1.94096,-1.63842 2.80074,-2.57102c1.14602,-1.24308 2.18095,-2.58249 3.2097,-3.92253c0.332446,-0.433038 0.664422,-0.866417 0.998629,-1.2981c0.199946,-0.256681 0.400802,-0.512569 0.602849,-0.7676c1.08514,-1.355 2.22174,-2.68799 3.56751,-3.79394c0.317234,-0.260701 0.645646,-0.507978 0.98621,-0.737442c0.0856937,-0.0577384 0.170071,-0.112996 0.257265,-0.168442c0.111987,-0.0712106 0.222539,-0.141083 0.347293,-0.187875c0.156563,-0.0587227 0.324674,-0.0855607 0.491738,-0.0785033c0.481216,0.0203284 0.918182,0.325979 1.1023,0.771043c0.0532515,0.128721 0.0847528,0.266261 0.092834,0.405328c0.00808122,0.139067 -0.00727691,0.27933 -0.0452603,0.413353c-0.0532175,0.187776 -0.150795,0.362175 -0.282982,0.505767c-0.0572582,0.0621987 -0.120455,0.114565 -0.18706,0.166217c-0.125018,0.0842118 -0.253576,0.163023 -0.379164,0.246454c-0.908955,0.621094 -1.70964,1.3796 -2.45164,2.18988c-0.751307,0.82044 -1.44408,1.69196 -2.12737,2.56913c-0.603631,0.77969 -1.20034,1.5647 -1.8053,2.34336c-0.598452,0.765036 -1.20519,1.52356 -1.84175,2.25742c-1.08177,1.24713 -2.24831,2.42796 -3.55389,3.44219c-0.721189,0.560246 -1.48286,1.06209 -2.28168,1.50447l-0.074391,0.0380064c-0.0681833,0.0292695 -0.084667,0.0383696 -0.155556,0.0607046c-0.0806335,0.0254051 -0.161518,0.0393262 -0.245002,0.0509307c-0.0833253,0.00594911 -0.0830364,0.00594783 -0.166862,0.00631942ZM11.1344,28.1595c-0.0420412,-0.00374488 -0.084326,-0.00536521 -0.126124,-0.0112346c-0.16738,-0.0235043 -0.329522,-0.0812611 -0.474068,-0.168868c-0.328031,-0.198814 -0.550442,-0.545899 -0.594015,-0.926992c-0.0143942,-0.125894 -0.00950706,-0.253864 0.0144469,-0.378294c0.0319518,-0.165974 0.0978468,-0.324984 0.192662,-0.464907c0.023677,-0.0349412 0.0508327,-0.0673942 0.076249,-0.101091c0.209042,-0.249755 0.417502,-0.499999 0.625358,-0.750743c1.10924,-1.34955 2.19374,-2.71899 3.29087,-4.07836c0.291851,-0.359694 0.584821,-0.718385 0.87927,-1.07596c1.14243,-1.37416 2.31418,-2.72725 3.60272,-3.96771c0.972848,-0.936543 2.01203,-1.80911 3.1409,-2.55255c1.30025,-0.856299 2.72013,-1.53212 4.22383,-1.94284c1.08329,-0.295887 2.20168,-0.453929 3.32392,-0.483231c1.11129,-0.0290163 2.22374,0.066434 3.31852,0.255921c1.30013,0.225029 2.57511,0.583937 3.79303,1.09316c1.23224,0.515212 2.40102,1.17894 3.47686,1.97024c2.08582,1.53414 3.82163,3.53925 5.08269,5.79825c0.443305,0.794112 0.830476,1.62217 1.13444,2.47979c0.0422576,0.119228 0.0820566,0.236878 0.120792,0.357278c0.0436056,0.13554 0.0878108,0.269732 0.102196,0.412131c0.0127363,0.126072 0.00616552,0.253967 -0.0194238,0.378071c-0.0255893,0.124103 -0.0701457,0.244166 -0.131713,0.354917c-0.0615678,0.110752 -0.140023,0.211969 -0.231922,0.299211c-0.0918991,0.0872412 -0.197057,0.16033 -0.310859,0.21606c-0.384004,0.188049 -0.848946,0.164162 -1.21166,-0.0622501c-0.215497,-0.134518 -0.387091,-0.334668 -0.487117,-0.568182c-0.0560458,-0.13084 -0.0918107,-0.271484 -0.136325,-0.406463c-0.0514154,-0.148496 -0.0513475,-0.148187 -0.104796,-0.295644c-0.435332,-1.15009 -1.02006,-2.23898 -1.71896,-3.2501c-1.05595,-1.52769 -2.37428,-2.87841 -3.90201,-3.9372c-1.07145,-0.742568 -2.24308,-1.33736 -3.47522,-1.7632c-0.855015,-0.295497 -1.73687,-0.507661 -2.62995,-0.649821c-1.14315,-0.181967 -2.30849,-0.242927 -3.46194,-0.130234c-1.04071,0.101678 -2.06435,0.347289 -3.03701,0.731364c-1.63705,0.646426 -3.09586,1.66612 -4.40541,2.83034c-1.7357,1.54307 -3.23727,3.33136 -4.70294,5.12571c-0.892256,1.09967 -1.77316,2.20846 -2.66241,3.31055c-0.518322,0.639193 -1.04043,1.27502 -1.56862,1.90608l-0.086085,0.0928587c-0.0316792,0.027891 -0.0619865,0.0574224 -0.0950377,0.0836731c-0.132355,0.105122 -0.285927,0.182849 -0.449011,0.227257c-0.108832,0.029635 -0.137873,0.0286575 -0.249506,0.0414212c-0.0422043,0.000527574 -0.0844087,0.00105515 -0.126613,0.00158272ZM13.6622,17.3549c-0.198062,-0.00335986 -0.390402,-0.0449065 -0.56785,-0.134725c-0.399798,-0.202363 -0.665603,-0.615157 -0.684392,-1.06286c-0.00549011,-0.130818 0.00972528,-0.262385 0.044929,-0.388497c0.0489734,-0.17544 0.136543,-0.332589 0.251298,-0.473183c0.202309,-0.228895 0.413472,-0.45058 0.622334,-0.673557c1.35158,-1.43079 2.78148,-2.82321 4.45639,-3.87399c0.0629418,-0.038753 0.0621968,-0.0388563 0.125497,-0.0761364c0.159871,-0.0858854 0.330819,-0.141931 0.512375,-0.156604c0.163189,-0.0131883 0.328651,0.006043 0.484465,0.0563082c0.140206,0.0452302 0.272145,0.115397 0.388031,0.20636c0.102994,0.080844 0.193101,0.177911 0.266072,0.286625c0.259365,0.386407 0.280567,0.898608 0.0540254,1.30513c-0.0968147,0.17373 -0.232981,0.315785 -0.395256,0.429392c-0.107473,0.0691165 -0.216582,0.135576 -0.323728,0.205245c-1.16499,0.777073 -2.19656,1.73262 -3.17321,2.73177c-0.241813,0.247383 -0.480237,0.498065 -0.716231,0.751001c-0.154641,0.165742 -0.305188,0.335439 -0.461842,0.499242c-0.0352915,0.0341141 -0.0350089,0.0338616 -0.0718951,0.0668164c-0.139978,0.115505 -0.296657,0.203913 -0.471833,0.253824c-0.0791461,0.02255 -0.159371,0.0354509 -0.241111,0.0437222c-0.0489912,0.00302059 -0.0486123,0.00301213 -0.0980632,0.00411546ZM52.1483,34.2746c-0.120892,-0.00478957 -0.235496,-0.0144562 -0.35256,-0.0478141c-0.345999,-0.098594 -0.638223,-0.347741 -0.790291,-0.673795c-0.0503106,-0.107872 -0.0850837,-0.222886 -0.102965,-0.340562c-0.00595689,-0.0392016 -0.00816972,-0.0788813 -0.0122546,-0.118322c-0.0121658,-0.218577 -0.0250568,-0.437114 -0.0387181,-0.655602c-0.0650946,-0.937553 -0.151706,-1.87295 -0.273397,-2.80496c-0.089166,-0.68291 -0.195428,-1.36362 -0.320368,-2.0409c-0.747164,-4.05032 -2.17849,-8.04155 -4.62964,-11.3834c-0.358812,-0.489194 -0.738621,-0.963032 -1.13922,-1.41866c-0.590461,-0.67158 -1.22624,-1.30348 -1.90438,-1.8865c-0.818473,-0.70367 -1.69864,-1.33574 -2.62979,-1.88184c-1.1082,-0.649936 -2.28845,-1.1785 -3.51402,-1.56455c-1.59334,-0.5019 -3.25767,-0.757583 -4.92656,-0.795961c-1.76315,-0.0405454 -3.52685,0.157176 -5.25013,0.524598c-0.732952,0.156274 -1.45747,0.34582 -2.17663,0.556211l-0.115629,0.0279305c-0.104518,0.014922 -0.130649,0.0224601 -0.236586,0.0223555c-0.23852,-0.000235582 -0.475076,-0.0699486 -0.675605,-0.1991c-0.407196,-0.262258 -0.629664,-0.75067 -0.560261,-1.23001c0.0170557,-0.117799 0.0510213,-0.233054 0.100574,-0.341276c0.0660921,-0.144344 0.159817,-0.275687 0.274822,-0.385128c0.115005,-0.10944 0.250831,-0.196541 0.398273,-0.255399c0.0368258,-0.0147006 0.0749672,-0.0258635 0.112451,-0.0387953c0.234598,-0.0686325 0.469557,-0.135434 0.705164,-0.200519c0.933417,-0.250173 1.87517,-0.465049 2.82819,-0.626491c1.98749,-0.336682 4.01628,-0.453649 6.02638,-0.278608c1.44024,0.125418 2.86744,0.401197 4.24667,0.835654c1.85301,0.583695 3.61445,1.45047 5.21726,2.54731c1.21801,0.83351 2.34391,1.79936 3.36146,2.86805c1.61443,1.69556 2.95009,3.64436 4.01219,5.72831c1.85995,3.64939 2.88391,7.67987 3.35339,11.7347c0.0378052,0.326522 0.0720362,0.653457 0.102823,0.980715c0.0209083,0.222254 0.0401268,0.443416 0.0579062,0.665945c0.0270699,0.338808 0.0505611,0.6779 0.0706141,1.01719c0.0110944,0.187717 0.0352026,0.387691 0.00950216,0.577194c-0.0538702,0.397214 -0.302196,0.751913 -0.657005,0.938438c-0.105356,0.0553863 -0.218585,0.0955927 -0.335277,0.119053c-0.0388737,0.00781543 -0.0784032,0.0119138 -0.117605,0.0178707c-0.0395903,0.00220357 -0.0791806,0.00440714 -0.118771,0.00661072Z" style="fill:#fff;"></path></g></g></g></g></g></svg>