<svg width="100%" height="100%" viewBox="0 0 300 128" version="1.1" xmlns="http://www.w3.org/2000/svg" xmlns:xlink="http://www.w3.org/1999/xlink" xml:space="preserve" style="fill-rule: evenodd; clip-rule: evenodd; stroke-linejoin: round; stroke-miterlimit: 1.41421; pointer-events: none; display: block;" fit="" preserveAspectRatio="xMidYMid meet"><g id="Layer 1"><path d="M68.1221,35.7129c-0.21,-5.11 -4.06,-7.665 -9.591,-7.665c-3.39,0 -8.205,1.425 -8.205,6.365c0,4.816 5.11,5.611 10.175,6.66c5.111,1.045 10.216,2.346 10.216,8.291c0,6.196 -5.946,8.415 -10.511,8.415c-6.99,0 -12.686,-2.889 -12.606,-10.595l1.846,0c-0.375,6.536 4.855,9.006 10.76,9.006c3.606,0 8.671,-1.636 8.671,-6.826c0,-5.071 -5.11,-5.945 -10.221,-6.996c-5.065,-1.045 -10.176,-2.259 -10.176,-7.955c0,-5.735 5.321,-7.956 10.051,-7.956c6.24,0 11.141,2.681 11.436,9.256l-1.845,0Z" style="fill:#636466;fill-rule:nonzero;"></path><path d="M96.3491,55.4795l0,1.59l-20.312,0l0,-29.902l20.102,0l0,1.589l-18.262,0l0,11.982l17.172,0l0,1.59l-17.172,0l0,13.151l18.472,0Z" style="fill:#636466;fill-rule:nonzero;"></path><path d="M123.815,36.0879c-0.795,-5.025 -5.19,-8.04 -10.175,-8.04c-7.831,0 -12.396,6.404 -12.396,14.07c0,7.666 4.565,14.072 12.396,14.072c5.82,0 10.346,-5.196 10.681,-10.761l1.84,0c-0.671,7.115 -5.946,12.35 -12.521,12.35c-8.961,0 -14.236,-6.91 -14.236,-15.661c0,-8.75 5.275,-15.661 14.236,-15.661c10.595,0 11.981,9.211 12.021,9.631l-1.846,0Z" style="fill:#636466;fill-rule:nonzero;"></path><path d="M143.542,41.8682c4.355,0 7.621,-2.055 7.621,-6.87c0,-4.521 -3.6,-6.241 -7.621,-6.241l-10.635,0l0,13.111l10.635,0ZM131.062,27.1672l12.48,0c5.236,0 9.466,1.925 9.466,7.706c0,4.02 -2.43,6.995 -6.405,7.666l0,0.079c4.435,0.506 5.525,3.311 5.821,6.411c0.289,3.101 -0.211,6.45 1.005,8.04l-2.056,0c-1.13,-2.055 -0.46,-5.485 -0.795,-8.375c-0.375,-2.89 -1.8,-5.235 -7.036,-5.235l-10.635,0l0,13.61l-1.845,0l0,-29.902Z" style="fill:#636466;fill-rule:nonzero;"></path><path d="M178.806,55.4795l0,1.59l-20.312,0l0,-29.902l20.102,0l0,1.589l-18.262,0l0,11.982l17.171,0l0,1.59l-17.171,0l0,13.151l18.472,0Z" style="fill:#636466;fill-rule:nonzero;"></path><path d="M179.77,28.7568l0,-1.59l22.907,0l0,1.59l-10.556,0l0,28.312l-1.84,0l0,-28.312l-10.511,0Z" style="fill:#636466;fill-rule:nonzero;"></path><path d="M220.053,45.8887l-6.404,-16.922l-0.086,0l-6.66,16.922l13.15,0ZM214.569,27.1667l11.81,29.903l-1.971,0l-3.77,-9.591l-14.32,0l-3.811,9.591l-1.97,0l12.021,-29.903l2.011,0Z" style="fill:#636466;fill-rule:nonzero;"></path><path d="M242.04,41.8682c4.355,0 7.62,-2.055 7.62,-6.87c0,-4.521 -3.599,-6.241 -7.62,-6.241l-10.636,0l0,13.111l10.636,0ZM229.559,27.1672l12.481,0c5.235,0 9.466,1.925 9.466,7.706c0,4.02 -2.431,6.995 -6.405,7.666l0,0.079c4.434,0.506 5.525,3.311 5.82,6.411c0.29,3.101 -0.21,6.45 1.005,8.04l-2.056,0c-1.13,-2.055 -0.46,-5.485 -0.795,-8.375c-0.374,-2.89 -1.8,-5.235 -7.035,-5.235l-10.636,0l0,13.61l-1.845,0l0,-29.902Z" style="fill:#636466;fill-rule:nonzero;"></path><path d="M256.991,27.167l1.84,0l0,29.902l-1.84,0l0,-29.902ZM260.552,19.212l2.135,0l-5.611,5.86l-1.55,0l5.026,-5.86Z" style="fill:#636466;fill-rule:nonzero;"></path><path d="M281.533,45.8887l-6.411,-16.922l-0.085,0l-6.655,16.922l13.151,0ZM276.042,27.1667l11.811,29.903l-1.965,0l-3.77,-9.591l-14.321,0l-3.816,9.591l-1.965,0l12.016,-29.903l2.01,0Z" style="fill:#636466;fill-rule:nonzero;"></path><path d="M53.2158,98.4365l6.616,0c2.719,0 10.051,-0.749 10.051,-11.766c0,-7.12 -2.641,-11.43 -9.966,-11.43l-6.701,0l0,23.196ZM49.2358,71.8905l10.261,0c9.21,0 14.366,4.605 14.366,14.235c0,10.011 -4.401,15.662 -14.366,15.662l-10.261,0l0,-29.897Z" style="fill:#636466;fill-rule:nonzero;"></path><path d="M78.7178,71.8906l20.646,0l0,3.35l-16.666,0l0,9.505l15.537,0l0,3.351l-15.537,0l0,10.34l16.791,0l0,3.35l-20.771,0l0,-29.896Z" style="fill:#636466;fill-rule:nonzero;"></path><path d="M133.241,80.6406c-0.459,-4.271 -3.31,-6.115 -7.41,-6.115c-3.35,0 -6.7,1.215 -6.7,5.11c0,3.686 4.77,4.231 9.585,5.32c4.775,1.085 9.55,2.76 9.55,8.626c0,6.366 -6.24,8.921 -11.685,8.921c-6.701,0 -12.351,-3.271 -12.351,-10.556l3.765,0c0,5.025 4.191,7.206 8.711,7.206c3.605,0 7.58,-1.13 7.58,-5.446c0,-4.105 -4.77,-4.815 -9.545,-5.866c-4.775,-1.045 -9.591,-2.425 -9.591,-7.91c0,-6.075 5.401,-8.756 10.846,-8.756c6.116,0 10.761,2.891 11.016,9.466l-3.771,0Z" style="fill:#636466;fill-rule:nonzero;"></path><path d="M148.233,89.4365l10.136,0l-4.987,-13.946l-0.079,0l-5.07,13.946ZM151.208,71.8905l4.395,0l11.686,29.897l-4.401,0l-3.264,-9l-12.647,0l-3.349,9l-4.106,0l11.686,-29.897Z" style="fill:#636466;fill-rule:nonzero;"></path><path d="M170.22,71.8906l3.98,0l0,26.546l15.826,0l0,3.35l-19.806,0l0,-29.896Z" style="fill:#636466;fill-rule:nonzero;"></path><path d="M217.373,90.9863c0,7.536 -4.31,11.517 -11.766,11.517c-7.706,0 -12.271,-3.561 -12.271,-11.517l0,-19.096l3.98,0l0,19.096c0,5.275 3.016,8.166 8.291,8.166c5.026,0 7.791,-2.891 7.791,-8.166l0,-19.096l3.975,0l0,19.096Z" style="fill:#636466;fill-rule:nonzero;"></path><path d="M227.719,98.4365l6.615,0c2.721,0 10.051,-0.749 10.051,-11.766c0,-7.12 -2.64,-11.43 -9.965,-11.43l-6.701,0l0,23.196ZM223.739,71.8905l10.26,0c9.211,0 14.366,4.605 14.366,14.235c0,10.011 -4.4,15.662 -14.366,15.662l-10.26,0l0,-29.897Z" style="fill:#636466;fill-rule:nonzero;"></path><path d="M13.4673,73.6621c-0.244,3.48 0.681,6.922 2.442,9.432c-0.704,-1.215 -1.102,-2.613 -1.102,-4.112c-0.017,-4.593 3.714,-8.336 8.296,-8.301c4.622,-0.035 8.336,3.708 8.314,8.301c0,1.499 -0.398,2.897 -1.079,4.112c1.76,-2.51 2.657,-5.952 2.441,-9.432c-0.176,-3.561 -1.681,-6.434 -3.52,-7.898c-1.857,-1.557 -4.078,-1.715 -6.156,-1.755c-2.038,0.04 -4.236,0.198 -6.11,1.755c-1.845,1.464 -3.367,4.337 -3.526,7.898" style="fill:#f99b21;fill-rule:nonzero;"></path><path d="M32.7793,73.6621c0.114,1.687 -0.04,3.355 -0.442,4.935c-0.08,0.357 -0.2,0.71 -0.319,1.079c0,0.045 -0.034,0.085 -0.034,0.141l0,0.017c-0.028,0.034 -0.045,0.074 -0.045,0.131l0,0.011c-0.04,0.04 -0.04,0.08 -0.057,0.131l0,0.017c-0.023,0.045 -0.04,0.097 -0.062,0.131l0,0.022c-0.023,0.051 -0.04,0.091 -0.04,0.119c0,0 -0.023,0.029 -0.023,0.04c-0.017,0.045 -0.017,0.063 -0.017,0.102c-0.045,0.018 -0.045,0.029 -0.045,0.04c0,0.046 -0.04,0.068 -0.04,0.097c0,0.022 0,0.022 -0.017,0.046c-0.023,0.039 -0.023,0.073 -0.04,0.107l-0.017,0.028c-0.04,0.046 -0.04,0.079 -0.04,0.109c0,0 0,0.022 -0.045,0.033c0,0.034 0,0.068 -0.04,0.114c0,0 0,0.023 -0.017,0.045c-0.022,0.028 -0.022,0.052 -0.022,0.091c-0.018,0.012 -0.018,0.028 -0.04,0.034c0,0.034 -0.04,0.068 -0.04,0.109c0,0.004 0,0.016 -0.017,0.039c-0.017,0.028 -0.017,0.057 -0.057,0.08c0,0.016 0,0.028 -0.017,0.056c0,0.017 -0.023,0.045 -0.045,0.085c0,0.018 -0.023,0.034 -0.023,0.034c0,0.035 -0.034,0.063 -0.034,0.091c0,0.023 -0.023,0.034 -0.046,0.046c0,0.033 -0.022,0.057 -0.034,0.091l0,0.057c-0.045,0.016 -0.045,0.039 -0.062,0.079c-0.029,0.017 -0.029,0.028 -0.029,0.056c-0.011,0.024 -0.039,0.046 -0.039,0.075c-0.017,0.011 -0.034,0.034 -0.034,0.045c-0.023,0.023 -0.04,0.051 -0.04,0.09c0,0 -0.023,0.018 -0.04,0.04c0,0.035 -0.045,0.051 -0.045,0.075c0,0.016 -0.017,0.039 -0.04,0.056c0,0.023 -0.04,0.045 -0.04,0.069c0,0.022 -0.017,0.034 -0.034,0.056c0,0.023 -0.04,0.045 -0.04,0.073c0,0 0,0.035 -0.045,0.058c0,0.017 -0.034,0.033 -0.034,0.073c-0.023,0.012 -0.04,0.023 -0.04,0.04c0,0.035 -0.023,0.057 -0.045,0.085c0,0.012 -0.017,0.023 -0.034,0.035c-0.046,0.044 -0.046,0.079 -0.085,0.119c0,0.046 -0.04,0.085 -0.057,0.125c0,0.006 -0.023,0.028 -0.023,0.028c-0.017,0.034 -0.04,0.062 -0.04,0.074c0,0.023 0,0.034 -0.04,0.057c0,0.006 -0.022,0.039 -0.039,0.068c0,0 -0.017,0.029 -0.04,0.051c0,0.012 0,0.028 -0.04,0.062c0,0.017 0,0.029 -0.017,0.041c0,0.022 -0.023,0.033 -0.045,0.056c-0.023,0.023 -0.023,0.039 -0.023,0.063c-0.034,0.005 -0.034,0.022 -0.034,0.034c-0.017,0.028 -0.04,0.039 -0.057,0.073c-0.022,0.028 -0.022,0.034 -0.045,0.063c0,0.011 -0.023,0.028 -0.023,0.05c-0.011,0.018 -0.034,0.03 -0.034,0.046c0,0.023 -0.04,0.04 -0.04,0.04c-0.04,0.029 -0.04,0.051 -0.04,0.074c-0.039,0.017 -0.039,0.04 -0.039,0.04c-0.04,0.016 -0.04,0.04 -0.063,0.056c-0.022,0.006 -0.022,0.04 -0.039,0.057c-0.023,0.012 -0.023,0.023 -0.04,0.046c0,0.01 -0.017,0.045 -0.04,0.051c-0.023,0.017 -0.023,0.028 -0.045,0.045c-0.017,0.023 -0.034,0.039 -0.057,0.057c0,0.011 -0.017,0.023 -0.017,0.023c-0.023,0.028 -0.04,0.05 -0.04,0.068c-0.045,0.016 -0.045,0.016 -0.063,0.04c0,0.011 -0.022,0.045 -0.039,0.057c-0.023,0.016 -0.023,0.016 -0.04,0.044c-0.017,0.035 -0.04,0.035 -0.04,0.057c-0.017,0.012 -0.039,0.034 -0.039,0.034c-0.04,0.04 -0.04,0.052 -0.057,0.063c-0.023,0.028 -0.063,0.056 -0.102,0.085c0,0.023 -0.017,0.023 -0.04,0.04c0,0.028 -0.04,0.04 -0.062,0.051c-0.018,0.011 -0.018,0.034 -0.057,0.051c0,0 0,0.035 -0.04,0.045c0,0.006 0,0.024 -0.046,0.034c0,0.029 -0.039,0.029 -0.039,0.051c-0.04,0.006 -0.04,0.03 -0.04,0.034c-0.04,0.018 -0.063,0.035 -0.08,0.052c0,0 0,0.017 -0.022,0.034c-0.011,0.011 -0.051,0.029 -0.051,0.045l0,0.018c-0.125,0.067 -0.205,0.141 -0.284,0.216c0,0 -0.017,0 -0.017,0.028c-0.017,0.017 -0.063,0.028 -0.08,0.033c-0.023,0.012 -0.023,0.04 -0.023,0.046c-0.039,0 -0.062,0.023 -0.085,0.046c0,0 -0.039,0.005 -0.039,0.022c-0.034,0.017 -0.034,0.029 -0.074,0.051c0,0.012 0,0.018 -0.046,0.034c0,0 -0.034,0.023 -0.051,0.035c-0.023,0.005 -0.023,0.016 -0.04,0.016c-0.022,0.029 -0.068,0.04 -0.068,0.052c-0.039,0.022 -0.039,0.022 -0.057,0.028c-0.016,0.006 -0.039,0.029 -0.062,0.034c0,0 -0.034,0.011 -0.034,0.023c-0.045,0.034 -0.045,0.04 -0.079,0.051c0,0.017 -0.023,0.017 -0.046,0.034c-0.017,0.012 -0.034,0.028 -0.057,0.028c-0.022,0.023 -0.04,0.029 -0.062,0.029c0,0.023 -0.045,0.045 -0.08,0.045l0,0.017c-0.04,0.022 -0.056,0.034 -0.079,0.052c0,0 -0.046,0.016 -0.057,0.016c-0.023,0.012 -0.039,0.035 -0.062,0.046c-0.04,0 -0.04,0.011 -0.04,0.023c-0.04,0 -0.08,0.01 -0.097,0.022c0,0.017 -0.023,0.017 -0.045,0.017c-0.023,0.023 -0.04,0.034 -0.057,0.04c-0.04,0.022 -0.04,0.022 -0.063,0.022c-0.016,0.024 -0.056,0.034 -0.056,0.04c-0.04,0 -0.04,0.012 -0.04,0.012c-0.039,0.011 -0.062,0.039 -0.085,0.039c-0.04,0 -0.04,0.024 -0.04,0.024c-0.039,0.016 -0.079,0.028 -0.079,0.044c-0.04,0.012 -0.04,0.012 -0.04,0.023c-0.04,0 -0.074,0.023 -0.097,0.029c0,0 -0.017,0 -0.017,0.005c-0.045,0.012 -0.085,0.024 -0.085,0.034c-0.04,0 -0.04,0 -0.04,0.012c-0.045,0.012 -0.079,0.017 -0.119,0.034l0,0.017c-0.324,0.102 -0.641,0.205 -0.999,0.278c-0.046,0.023 -0.085,0.023 -0.125,0.023l-0.034,0c-0.017,0.023 -0.04,0.028 -0.086,0.028l-0.039,0c-0.017,0.017 -0.074,0.017 -0.091,0.029l-0.023,0c-0.045,0 -0.085,0.017 -0.119,0.017c-0.08,0 -0.08,0.012 -0.125,0.012l-0.04,0c-0.017,0.022 -0.079,0.022 -0.119,0.022c-0.046,0.017 -0.085,0.017 -0.119,0.017c0,0.017 -0.04,0.017 -0.04,0.017c-0.04,0 -0.062,0 -0.079,0.006l-0.04,0c-0.04,0 -0.08,0.011 -0.125,0.011l-0.114,0l-0.039,0c-0.04,0.011 -0.085,0.011 -0.103,0.011l-0.022,0l-0.023,0l-0.137,0c-0.039,0 -0.039,0.006 -0.039,0.006l-0.199,0l-0.159,0l-0.04,-0.006l-0.119,0l-0.045,0l-0.017,0l-0.097,0c0,-0.011 -0.022,-0.011 -0.022,-0.011l-0.103,0l-0.034,0c-0.04,0 -0.085,-0.011 -0.125,-0.011c-0.056,-0.006 -0.096,-0.006 -0.119,-0.006c-0.023,0 -0.046,-0.017 -0.046,-0.017c-0.033,0 -0.067,0 -0.113,-0.017l-0.017,0c-0.023,0 -0.068,0 -0.108,-0.022l-0.034,0c-0.022,0 -0.04,-0.012 -0.102,-0.012l-0.023,0c-0.034,0 -0.074,-0.017 -0.091,-0.017l-0.022,0c-0.063,-0.012 -0.086,-0.012 -0.119,-0.029l-0.023,0c-0.063,0 -0.063,-0.005 -0.102,-0.028l-0.035,0c-0.045,0 -0.079,0 -0.125,-0.023c-0.335,-0.073 -0.675,-0.176 -0.999,-0.278l0,-0.017c-0.04,-0.017 -0.074,-0.022 -0.119,-0.034l0,-0.012c-0.04,-0.01 -0.08,-0.022 -0.125,-0.034l0,-0.005c-0.034,-0.006 -0.074,-0.029 -0.114,-0.029c0,-0.011 0,-0.011 -0.023,-0.023c-0.022,-0.016 -0.056,-0.028 -0.079,-0.028c-0.017,-0.016 -0.017,-0.04 -0.04,-0.04c-0.017,0 -0.056,-0.028 -0.096,-0.039c0,0 0,-0.012 -0.046,-0.012c0,-0.006 -0.039,-0.016 -0.079,-0.04c0,0 -0.017,0 -0.034,-0.022c0,-0.006 -0.045,-0.017 -0.085,-0.04c0,0 -0.018,0 -0.04,-0.017c0,-0.012 -0.034,-0.022 -0.074,-0.022l-0.028,-0.023c-0.018,-0.011 -0.057,-0.034 -0.08,-0.046c-0.017,0 -0.017,-0.016 -0.057,-0.016c0,-0.018 -0.045,-0.03 -0.045,-0.052c-0.034,0 -0.034,-0.011 -0.034,-0.017c-0.04,0 -0.057,-0.022 -0.079,-0.045c-0.041,0 -0.041,-0.006 -0.041,-0.029c-0.045,0 -0.062,-0.016 -0.079,-0.028c0,-0.017 -0.04,-0.017 -0.04,-0.034c-0.039,-0.011 -0.039,-0.017 -0.079,-0.051c0,-0.012 -0.046,-0.012 -0.046,-0.012c0,-0.016 -0.039,-0.039 -0.073,-0.045c0,-0.006 -0.023,-0.006 -0.04,-0.028c-0.023,-0.012 -0.04,-0.023 -0.068,-0.052c-0.017,0 -0.017,-0.011 -0.017,-0.011c-0.04,-0.017 -0.079,-0.04 -0.079,-0.04c-0.018,-0.016 -0.041,-0.022 -0.041,-0.034c-0.039,-0.022 -0.039,-0.034 -0.079,-0.051c0,-0.017 -0.017,-0.017 -0.034,-0.022c-0.023,-0.023 -0.046,-0.046 -0.062,-0.046c-0.023,-0.006 -0.023,-0.034 -0.023,-0.034c-0.04,-0.017 -0.063,-0.028 -0.086,-0.045c0,-0.028 0,-0.028 -0.033,-0.028c-0.08,-0.075 -0.16,-0.149 -0.285,-0.211l0,-0.023c0,-0.016 -0.039,-0.034 -0.039,-0.045c-0.04,-0.017 -0.04,-0.034 -0.04,-0.034c-0.04,-0.017 -0.063,-0.034 -0.079,-0.052c0,0 -0.017,-0.028 -0.04,-0.034c0,-0.022 -0.04,-0.022 -0.04,-0.051c-0.034,-0.01 -0.034,-0.028 -0.034,-0.034c-0.045,-0.01 -0.045,-0.034 -0.063,-0.045c-0.017,-0.017 -0.017,-0.04 -0.056,-0.051c0,-0.011 -0.023,-0.023 -0.046,-0.051c-0.017,-0.017 -0.017,-0.017 -0.04,-0.04c0,-0.017 -0.039,-0.029 -0.039,-0.045c-0.04,-0.012 -0.04,-0.023 -0.04,-0.04c-0.04,-0.011 -0.04,-0.023 -0.079,-0.051c0,-0.012 -0.023,-0.034 -0.023,-0.034c-0.017,-0.034 -0.034,-0.034 -0.057,-0.069c0,-0.016 -0.045,-0.028 -0.045,-0.044c0,-0.012 -0.012,-0.046 -0.029,-0.057c-0.023,-0.012 -0.045,-0.024 -0.045,-0.04c-0.04,-0.018 -0.04,-0.04 -0.04,-0.057c-0.046,-0.011 -0.046,-0.023 -0.046,-0.034c-0.033,-0.018 -0.033,-0.034 -0.05,-0.057c-0.023,-0.017 -0.046,-0.028 -0.046,-0.045c-0.023,-0.006 -0.04,-0.041 -0.04,-0.051c-0.016,-0.023 -0.016,-0.034 -0.056,-0.046c0,-0.017 0,-0.051 -0.046,-0.057c0,-0.016 -0.017,-0.04 -0.034,-0.056c-0.022,0 -0.022,-0.023 -0.045,-0.04c0,-0.023 -0.023,-0.045 -0.04,-0.074c0,0 0,-0.017 -0.023,-0.04c-0.017,-0.016 -0.039,-0.028 -0.057,-0.046c0,-0.033 0,-0.039 -0.034,-0.05c0,-0.029 0,-0.035 -0.045,-0.063c0,-0.034 -0.023,-0.045 -0.023,-0.073c-0.023,-0.012 -0.023,-0.029 -0.04,-0.034c-0.011,-0.024 -0.011,-0.04 -0.011,-0.063c-0.045,-0.023 -0.045,-0.034 -0.062,-0.056c0,0 -0.023,-0.024 -0.023,-0.041c-0.023,-0.034 -0.046,-0.05 -0.046,-0.062c-0.016,-0.022 -0.033,-0.051 -0.033,-0.051c-0.017,-0.029 -0.017,-0.062 -0.04,-0.068c0,-0.012 0,-0.034 -0.04,-0.057c0,-0.012 -0.04,-0.04 -0.04,-0.074l0,-0.028c-0.04,-0.04 -0.079,-0.079 -0.079,-0.125c-0.04,-0.04 -0.08,-0.075 -0.08,-0.119c-0.023,-0.012 -0.023,-0.023 -0.039,-0.035c0,-0.028 -0.046,-0.05 -0.069,-0.085c0,-0.017 -0.017,-0.028 -0.017,-0.04c-0.017,-0.04 -0.039,-0.056 -0.056,-0.073c0,-0.023 -0.023,-0.046 -0.023,-0.046c-0.017,-0.04 -0.04,-0.062 -0.04,-0.085c0,-0.022 -0.04,-0.034 -0.04,-0.056c0,-0.024 -0.039,-0.046 -0.039,-0.069c-0.018,-0.017 -0.018,-0.04 -0.035,-0.056c0,-0.024 -0.022,-0.04 -0.045,-0.075c0,-0.022 -0.023,-0.04 -0.023,-0.04c-0.022,-0.039 -0.034,-0.067 -0.051,-0.09c0,-0.011 0,-0.034 -0.04,-0.045c0,-0.029 0,-0.051 -0.045,-0.075l0,-0.056c-0.023,-0.04 -0.04,-0.063 -0.062,-0.079c-0.023,-0.029 -0.023,-0.029 -0.023,-0.069c-0.011,-0.022 -0.034,-0.046 -0.034,-0.079c-0.023,-0.012 -0.04,-0.023 -0.04,-0.046c0,-0.028 -0.04,-0.056 -0.04,-0.079c0,0 -0.039,-0.028 -0.039,-0.046c0,-0.04 0,-0.068 -0.046,-0.085c0,-0.028 -0.017,-0.04 -0.017,-0.056c-0.017,-0.023 -0.04,-0.052 -0.04,-0.08c-0.022,-0.023 -0.022,-0.035 -0.022,-0.039c-0.018,-0.041 -0.034,-0.075 -0.034,-0.109c0,0 -0.04,-0.022 -0.04,-0.034c0,-0.039 -0.023,-0.063 -0.04,-0.091l0,-0.045c-0.04,-0.046 -0.04,-0.08 -0.04,-0.114c-0.045,-0.011 -0.045,-0.023 -0.045,-0.023c0,-0.04 -0.04,-0.073 -0.04,-0.119l0,-0.028c-0.028,-0.034 -0.028,-0.068 -0.057,-0.107c-0.016,-0.024 -0.016,-0.024 -0.016,-0.046c0,-0.029 -0.029,-0.051 -0.041,-0.097l0,-0.04c-0.022,-0.039 -0.045,-0.057 -0.045,-0.102c0,-0.011 0,-0.028 -0.039,-0.04c0,-0.028 -0.018,-0.068 -0.041,-0.119l0,-0.011c0,-0.045 -0.039,-0.097 -0.039,-0.142l0,-0.012c-0.04,-0.056 -0.04,-0.096 -0.063,-0.136l0,-0.011c-0.017,-0.057 -0.017,-0.097 -0.056,-0.131l0,-0.017c-0.017,-0.056 -0.017,-0.085 -0.04,-0.141c-0.125,-0.369 -0.239,-0.722 -0.318,-1.079c-0.403,-1.58 -0.562,-3.248 -0.443,-4.935c0.159,-3.561 1.681,-6.434 3.526,-7.898c1.874,-1.557 4.072,-1.715 6.11,-1.755c-1.959,0.107 -4.077,0.045 -6.081,0.516c-2.039,0.449 -3.958,1.465 -5.434,2.953c-1.46,1.448 -2.459,3.362 -2.913,5.383c-0.489,2.028 -0.404,4.128 -0.529,6.121c0,2.278 0.086,4.527 0.721,6.741c0.023,0.114 0.04,0.199 0.08,0.29c-0.017,-0.057 -0.04,-0.12 -0.057,-0.176c0.46,1.566 1.221,3.089 2.34,4.326l0.023,0c0.17,0.182 0.335,0.369 0.516,0.534c0,0 0.023,0.023 0.023,0.034c0.437,0.398 0.897,0.761 1.357,1.079l0.04,0c0.193,0.148 0.437,0.279 0.664,0.403l0,0.011c0.494,0.279 1.033,0.517 1.596,0.71c0.216,0.103 0.46,0.17 0.715,0.245c0.108,0.022 0.159,0.05 0.239,0.074c0.426,0.119 0.823,0.198 1.237,0.283l0.023,0.012c0.08,0 0.119,0.022 0.205,0.022l0.017,0c0.057,0.034 0.124,0.034 0.182,0.046l0.033,0c0.046,0.017 0.109,0.028 0.171,0.028l0.034,0c0.04,0.011 0.12,0.035 0.159,0.035l0.04,0c0.284,0.039 0.562,0.085 0.823,0.09c0.057,0.023 0.137,0.023 0.199,0.023l0.057,0c0.039,0.022 0.085,0.022 0.164,0.034l0.04,0c0.04,0 0.096,0.006 0.159,0.017l0.244,0c0.051,0.011 0.097,0.011 0.153,0.017l0.04,0c0.08,0.011 0.125,0.011 0.159,0.023l0.046,0c0.074,0 0.113,0.006 0.181,0.006l0.057,0c0.12,0.022 0.256,0.022 0.398,0.034l0.238,0c0.086,0.005 0.119,0.005 0.165,0.005l0.278,0c0.034,0.011 0.074,0.011 0.119,0.011l0.403,0c0.04,0 0.04,0.012 0.074,0.012l0.403,0c0.08,0 0.16,0.006 0.199,0c0.08,0.006 0.159,0 0.199,0l0.443,0c0.017,0 0.034,-0.012 0.079,-0.012l0.398,0c0.039,0 0.079,-0.011 0.119,-0.011l0.284,0c0.057,0 0.113,0 0.159,-0.005l0.239,0c0.158,-0.012 0.277,-0.012 0.397,-0.034l0.063,0c0.062,0 0.102,-0.006 0.158,-0.006l0.057,0c0.046,-0.012 0.102,-0.012 0.143,-0.023l0.062,0c0.045,-0.006 0.079,-0.006 0.153,-0.006c0,-0.011 0.045,-0.011 0.045,-0.011l0.222,0c0.057,-0.011 0.097,-0.017 0.136,-0.017l0.063,0c0.062,-0.012 0.102,-0.012 0.142,-0.034l0.039,0c0.074,0 0.142,0 0.199,-0.023c0.278,-0.005 0.557,-0.051 0.84,-0.09l0.023,0c0.051,0 0.137,-0.024 0.171,-0.035l0.039,0c0.063,0 0.125,-0.011 0.188,-0.028l0.017,0c0.079,-0.012 0.124,-0.012 0.199,-0.046c0.085,0 0.136,-0.022 0.198,-0.022l0,-0.012c0.443,-0.085 0.841,-0.164 1.261,-0.283c0.085,-0.024 0.159,-0.052 0.261,-0.074c0.239,-0.075 0.477,-0.142 0.721,-0.245c0.517,-0.193 1.062,-0.431 1.556,-0.71l0,-0.011c0.244,-0.124 0.483,-0.255 0.681,-0.403c0.523,-0.318 0.96,-0.681 1.397,-1.079c0,-0.011 0.017,-0.028 0.046,-0.034c0.159,-0.165 0.341,-0.352 0.516,-0.534c1.119,-1.237 1.88,-2.76 2.357,-4.326c-0.04,0.056 -0.04,0.13 -0.079,0.181c0.039,-0.085 0.079,-0.181 0.079,-0.295c0.642,-2.214 0.721,-4.463 0.721,-6.741c-0.102,-1.993 -0.04,-4.093 -0.522,-6.121c-0.438,-2.021 -1.477,-3.935 -2.936,-5.383c-1.454,-1.488 -3.39,-2.504 -5.4,-2.953c-2.021,-0.471 -4.134,-0.409 -6.133,-0.516c2.078,0.04 4.299,0.198 6.155,1.755c1.84,1.464 3.345,4.337 3.521,7.898" style="fill:#fdcf09;fill-rule:nonzero;"></path><path d="M17.8281,118.578c3.458,0.222 6.911,-0.692 9.432,-2.425c-1.238,0.688 -2.635,1.068 -4.157,1.068c-4.582,0.017 -8.313,-3.708 -8.296,-8.308c-0.017,-4.576 3.714,-8.318 8.296,-8.296c1.522,0 2.919,0.387 4.157,1.085c-2.521,-1.755 -5.974,-2.663 -9.432,-2.442c-3.56,0.182 -6.439,1.67 -7.921,3.521c-1.562,1.857 -1.721,4.082 -1.761,6.132c0.04,2.073 0.199,4.288 1.761,6.156c1.482,1.84 4.361,3.333 7.921,3.509" style="fill:#b22428;fill-rule:nonzero;"></path><path d="M17.8281,99.2598c1.681,-0.102 3.356,0.058 4.912,0.455c0.363,0.073 0.721,0.176 1.062,0.301l0.023,0c0.039,0.011 0.079,0.034 0.136,0.04c0,0 0.022,0 0.022,0.016c0.04,0.017 0.08,0.017 0.114,0.045c0.085,0.018 0.125,0.04 0.165,0.046l0.023,0.012c0.034,0.011 0.079,0.022 0.102,0.028c0.034,0.017 0.034,0.017 0.034,0.023c0.045,0.012 0.079,0.04 0.119,0.04c0.017,0.011 0.045,0.022 0.045,0.022c0.04,0.029 0.08,0.029 0.114,0.051c0,0 0,0.012 0.04,0.012c0,0.022 0.045,0.028 0.085,0.051c0.034,0 0.034,0.011 0.034,0.011c0.04,0.006 0.079,0.04 0.125,0.04c0,0.011 0,0.011 0.04,0.011c0,0.023 0.039,0.023 0.079,0.046c0.04,0.011 0.04,0.011 0.04,0.028c0.04,0.011 0.08,0.017 0.119,0.034c0,0.011 0.017,0.011 0.04,0.023c0.04,0.017 0.04,0.022 0.085,0.04c0.034,0.011 0.034,0.022 0.034,0.022c0.04,0.023 0.085,0.029 0.102,0.051c0.023,0 0.023,0.006 0.063,0.018c0.011,0.022 0.034,0.022 0.074,0.039c0.023,0.012 0.04,0.012 0.04,0.017c0.045,0.011 0.062,0.04 0.102,0.057c0.022,0.012 0.022,0.017 0.04,0.017c0.022,0.023 0.062,0.028 0.085,0.04c0.022,0.022 0.056,0.034 0.056,0.034c0.04,0.006 0.04,0.028 0.074,0.046l0.045,0.011c0.04,0.028 0.08,0.04 0.097,0.068c0,0 0.028,0 0.046,0.012c0.022,0.016 0.057,0.028 0.079,0.056c0.017,0 0.017,0.017 0.057,0.017c0,0.017 0.04,0.034 0.079,0.046c0,0.005 0.017,0.022 0.04,0.022c0.023,0.04 0.046,0.051 0.085,0.069l0.04,0.034c0.04,0 0.04,0.028 0.079,0.039c0,0.006 0.04,0.012 0.057,0.023c0.017,0.011 0.04,0.045 0.086,0.045c0,0.017 0.017,0.029 0.056,0.051c0,0 0.04,0.018 0.04,0.034c0.04,0.012 0.063,0.012 0.063,0.012c0.039,0.04 0.051,0.057 0.096,0.068c0,0.017 0.023,0.023 0.023,0.023c0.057,0.034 0.074,0.05 0.136,0.096c0.023,0.011 0.063,0.039 0.102,0.051c0.017,0 0.017,0.034 0.04,0.034c0.023,0.006 0.057,0.029 0.057,0.04c0.022,0.023 0.045,0.035 0.062,0.035c0.017,0.016 0.04,0.016 0.063,0.028c0.016,0.016 0.034,0.022 0.034,0.034c0.04,0 0.04,0.028 0.085,0.028c0.022,0.023 0.022,0.039 0.04,0.045c0.023,0.012 0.04,0.034 0.073,0.04c0,0.023 0.046,0.023 0.046,0.04c0.04,0.011 0.04,0.017 0.04,0.045c0.034,0.012 0.034,0.023 0.073,0.034c0,0 0.023,0.029 0.046,0.041c0.017,0.01 0.039,0.028 0.062,0.039c0,0 0.017,0.028 0.063,0.04c0,0.011 0.034,0.022 0.034,0.028c0.023,0.022 0.04,0.04 0.04,0.051c0.04,0.023 0.04,0.034 0.085,0.046c0,0.016 0.017,0.022 0.034,0.04c0,0.006 0.04,0.016 0.04,0.034c0.022,0.011 0.039,0.028 0.085,0.045c0,0 0,0.022 0.04,0.046c0,0 0.011,0.028 0.033,0.045c0,0.011 0.018,0.022 0.041,0.034c0.022,0.011 0.039,0.028 0.039,0.04c0.04,0.016 0.04,0.034 0.08,0.045c0,0.017 0.045,0.028 0.045,0.051c0,0.011 0.04,0.023 0.04,0.045c0,0 0.04,0.018 0.04,0.04c0.017,0.011 0.039,0.04 0.079,0.04c0,0.017 0.023,0.04 0.04,0.051c0,0 0.017,0.029 0.039,0.04c0.04,0.029 0.063,0.079 0.08,0.102c0.04,0.017 0.04,0.028 0.062,0.034c0.018,0.04 0.018,0.046 0.04,0.074c0.018,0.005 0.018,0.017 0.034,0.034c0.023,0.023 0.04,0.04 0.063,0.051c0,0.012 0.017,0.029 0.017,0.029c0.023,0.04 0.045,0.05 0.062,0.074c0,0 0.023,0.022 0.04,0.033c0,0.029 0.023,0.04 0.04,0.058c0.017,0.01 0.017,0.033 0.039,0.039c0.023,0.023 0.046,0.04 0.063,0.062l0.017,0.012c0.062,0.085 0.125,0.187 0.205,0.266l0,0.035c0.039,0.017 0.062,0.046 0.073,0.079c0,0.011 0,0.017 0.023,0.017c0,0.023 0.023,0.057 0.046,0.079c0.016,0.018 0.016,0.018 0.039,0.029c0.017,0.034 0.017,0.057 0.017,0.057c0.034,0.034 0.034,0.045 0.034,0.057c0.023,0.017 0.045,0.045 0.068,0.067c0,0 0.017,0.018 0.017,0.03c0,0.033 0.04,0.061 0.04,0.085c0,0.006 0,0.016 0.04,0.034c0,0.011 0.017,0.034 0.04,0.067c0,0 0,0.029 0.04,0.046l0,0.057c0.039,0.022 0.039,0.046 0.039,0.046c0.023,0.022 0.04,0.056 0.04,0.079c0.023,0.011 0.04,0.028 0.04,0.046c0,0.016 0.022,0.039 0.039,0.067l0,0.052c0.046,0.034 0.046,0.045 0.063,0.073c0,0 0.017,0.028 0.017,0.046c0.022,0.022 0.022,0.051 0.045,0.073l0,0.04c0.04,0.023 0.04,0.051 0.04,0.074c0.034,0.011 0.034,0.023 0.034,0.035c0,0.028 0.045,0.061 0.045,0.085l0,0.034c0.04,0.034 0.04,0.051 0.058,0.079l0,0.046c0.016,0.028 0.016,0.051 0.056,0.073l0,0.04c0.023,0.022 0.04,0.063 0.04,0.097c0,0 0,0.016 0.023,0.028c0,0.028 0.022,0.045 0.039,0.097c0,0 0,0.01 0.023,0.01c0,0.046 0,0.081 0.017,0.115c0,0.005 0,0.005 0.023,0.01c0,0.023 0,0.075 0.034,0.103l0,0.017c0.13,0.312 0.21,0.647 0.29,0.994c0,0.04 0.022,0.079 0.022,0.131l0,0.01c0.018,0.029 0.018,0.069 0.018,0.115l0,0.016c0,0.04 0.039,0.069 0.039,0.113l0,0.018c0,0.039 0,0.073 0.017,0.107l0,0.041c0.017,0.028 0.017,0.073 0.017,0.102l0,0.136c0,0.012 0,0.012 0.04,0.022l0,0.24c0,0 0,0.022 0.022,0.022l0,0.107c0,0.018 0,0.018 0.018,0.04l0,1.284l-0.018,0.022l0,0.103c-0.022,0.011 -0.022,0.034 -0.022,0.034l0,0.244c-0.04,0.012 -0.04,0.012 -0.04,0.017l0,0.142c0,0.034 0,0.073 -0.017,0.102l0,0.034c-0.017,0.028 -0.017,0.074 -0.017,0.108l0,0.029c0,0.034 -0.039,0.085 -0.039,0.102l0,0.039c0,0.024 0,0.057 -0.018,0.097l0,0.012c0,0.039 -0.022,0.09 -0.022,0.119c-0.08,0.346 -0.16,0.698 -0.29,1.01c-0.034,0.041 -0.034,0.069 -0.034,0.103c-0.023,0.011 -0.023,0.017 -0.023,0.017c-0.017,0.05 -0.017,0.079 -0.017,0.113c-0.023,0 -0.023,0.012 -0.023,0.012c-0.017,0.028 -0.039,0.062 -0.039,0.096c0,0 -0.023,0.017 -0.023,0.034c0,0.035 -0.017,0.063 -0.04,0.091l0,0.039c-0.04,0.024 -0.04,0.046 -0.04,0.097c0,0 -0.016,0 -0.016,0.028c-0.018,0.024 -0.018,0.04 -0.058,0.069l0,0.051c0,0.023 -0.045,0.057 -0.045,0.057c0,0.033 0,0.045 -0.034,0.062c0,0.023 0,0.04 -0.04,0.074l0,0.028c-0.023,0.029 -0.023,0.057 -0.045,0.085l0,0.018c-0.034,0.034 -0.034,0.073 -0.08,0.085l0,0.056c0,0 -0.039,0.057 -0.039,0.063c0,0.012 -0.017,0.056 -0.04,0.062c0,0.023 -0.017,0.035 -0.04,0.069c0,0.011 0,0.022 -0.039,0.045l0,0.068c-0.04,0 -0.04,0.028 -0.04,0.028c-0.023,0.034 -0.04,0.052 -0.04,0.08c-0.04,0.011 -0.04,0.017 -0.04,0.039c0,0.029 -0.04,0.046 -0.04,0.075c0,0.011 -0.017,0.028 -0.017,0.04c-0.023,0.016 -0.045,0.034 -0.068,0.05c0,0.012 0,0.023 -0.017,0.046c-0.017,0.017 -0.017,0.039 -0.034,0.079c-0.023,0.006 -0.023,0.006 -0.039,0.029c-0.023,0.006 -0.046,0.04 -0.046,0.074c-0.023,0.005 -0.023,0.017 -0.023,0.033c-0.011,0.018 -0.034,0.046 -0.073,0.069l0,0.011c-0.08,0.103 -0.143,0.194 -0.205,0.284l-0.017,0.011c-0.017,0.034 -0.04,0.04 -0.063,0.057c0,0 -0.022,0.028 -0.039,0.04c-0.017,0.034 -0.04,0.04 -0.04,0.057c-0.017,0.011 -0.04,0.034 -0.04,0.045c-0.017,0.017 -0.039,0.029 -0.062,0.057c0,0.012 -0.017,0.028 -0.017,0.04c-0.023,0.023 -0.04,0.033 -0.063,0.051c0,0 -0.016,0.045 -0.034,0.057c-0.022,0.011 -0.022,0.034 -0.04,0.04c-0.022,0.016 -0.022,0.039 -0.062,0.039c0,0.017 -0.017,0.034 -0.04,0.046c0,0.022 -0.017,0.045 -0.017,0.045c-0.045,0.017 -0.062,0.039 -0.062,0.057c-0.017,0.011 -0.04,0.039 -0.04,0.045c-0.04,0.022 -0.062,0.034 -0.079,0.04c0,0.022 -0.04,0.034 -0.04,0.051c0,0.012 -0.04,0.046 -0.04,0.052c0,0.016 -0.045,0.016 -0.045,0.039c-0.04,0.011 -0.04,0.023 -0.08,0.04c0,0 -0.017,0.028 -0.039,0.04c-0.023,0.028 -0.041,0.04 -0.041,0.045c-0.022,0.011 -0.033,0.022 -0.033,0.046c-0.04,0 -0.04,0.034 -0.04,0.05c-0.046,0.012 -0.063,0.012 -0.085,0.04c0,0.011 -0.04,0.011 -0.04,0.029c-0.017,0.028 -0.034,0.034 -0.034,0.05c-0.045,0.024 -0.045,0.024 -0.085,0.051c0,0 -0.017,0.012 -0.04,0.024c0,0.016 -0.034,0.016 -0.034,0.028c-0.046,0.028 -0.046,0.04 -0.046,0.04c-0.04,0.033 -0.062,0.045 -0.079,0.057c-0.023,0.011 -0.046,0.016 -0.046,0.039c-0.039,0 -0.039,0.011 -0.073,0.034c0,0.017 0,0.028 -0.04,0.028c0,0 -0.046,0.03 -0.046,0.034c-0.033,0.023 -0.05,0.035 -0.073,0.052c-0.018,0.023 -0.018,0.033 -0.04,0.045c-0.045,0.012 -0.045,0.018 -0.085,0.028c0,0.018 -0.018,0.029 -0.034,0.029c-0.023,0.017 -0.046,0.017 -0.063,0.046c-0.017,0.016 -0.04,0.016 -0.062,0.04c0,0 -0.034,0.022 -0.057,0.022c-0.023,0.011 -0.023,0.023 -0.04,0.034c-0.039,0.023 -0.079,0.051 -0.102,0.074c-0.062,0.022 -0.079,0.045 -0.119,0.068c0,0 -0.04,0.017 -0.04,0.028c-0.045,0.029 -0.057,0.04 -0.08,0.063c-0.016,0.011 -0.039,0.022 -0.079,0.028c0,0.006 -0.04,0.028 -0.04,0.046c-0.039,0 -0.056,0.022 -0.056,0.033c-0.046,0.012 -0.069,0.029 -0.086,0.052c-0.017,0.006 -0.057,0.006 -0.057,0.017c-0.039,0.011 -0.079,0.029 -0.079,0.045c0,0.011 -0.04,0.023 -0.04,0.023c-0.039,0.017 -0.062,0.046 -0.085,0.062c-0.023,0 -0.04,0.012 -0.04,0.029c-0.039,0 -0.079,0.028 -0.079,0.04c-0.04,0.011 -0.04,0.016 -0.057,0.028c-0.022,0.011 -0.057,0.04 -0.079,0.063c-0.018,0 -0.018,0.022 -0.018,0.022c-0.045,0.006 -0.085,0.04 -0.125,0.04c0,0.011 -0.045,0.023 -0.045,0.023c-0.034,0.022 -0.034,0.034 -0.074,0.056c0,0 -0.034,0.012 -0.056,0.024c-0.023,0.016 -0.063,0.027 -0.085,0.045c-0.018,0 -0.018,0.011 -0.04,0.022c-0.04,0.012 -0.057,0.022 -0.102,0.046c0,0.006 -0.017,0.012 -0.04,0.012c-0.04,0.016 -0.063,0.027 -0.074,0.039c-0.04,0.017 -0.04,0.017 -0.063,0.028c-0.017,0.012 -0.062,0.046 -0.102,0.057l-0.034,0.005c-0.045,0.023 -0.045,0.029 -0.085,0.041c-0.023,0.011 -0.04,0.022 -0.04,0.028c-0.039,0.006 -0.079,0.028 -0.119,0.051l-0.04,0.011c-0.04,0.023 -0.079,0.04 -0.079,0.04c-0.04,0.011 -0.04,0.011 -0.063,0.023c-0.023,0.006 -0.062,0.016 -0.102,0.04l-0.034,0.011c-0.04,0.011 -0.04,0.022 -0.085,0.051c-0.04,0 -0.04,0 -0.04,0.011c-0.034,0.012 -0.074,0.023 -0.114,0.04c0,0 -0.045,0 -0.045,0.028c-0.04,0 -0.074,0.029 -0.119,0.035l-0.034,0c-0.023,0.022 -0.068,0.034 -0.085,0.056c-0.017,0 -0.04,0.012 -0.04,0.012c-0.04,0.011 -0.08,0.022 -0.142,0.057l-0.023,0c-0.034,0.016 -0.074,0.028 -0.114,0.05l-0.022,0c-0.057,0.006 -0.097,0.023 -0.136,0.045l-0.023,0c-0.341,0.115 -0.699,0.217 -1.062,0.302c-1.556,0.392 -3.231,0.562 -4.912,0.448c-3.56,-0.175 -6.439,-1.669 -7.921,-3.508c-1.562,-1.869 -1.721,-4.083 -1.761,-6.157c0.125,1.993 0.04,4.083 0.529,6.117c0.454,2.027 1.453,3.946 2.913,5.406c1.476,1.47 3.395,2.47 5.434,2.924c2.004,0.482 4.122,0.425 6.081,0.522c2.306,-0.006 4.538,-0.073 6.758,-0.71c0.113,-0.006 0.198,-0.057 0.295,-0.073c-0.057,0.016 -0.114,0.022 -0.182,0.057c1.567,-0.455 3.083,-1.239 4.344,-2.351c0.182,-0.165 0.341,-0.342 0.523,-0.518c0,-0.033 0.017,-0.045 0.034,-0.05c0.38,-0.42 0.761,-0.88 1.078,-1.358c0.143,-0.232 0.285,-0.448 0.404,-0.692c0.278,-0.5 0.539,-1.051 0.738,-1.584c0.085,-0.234 0.159,-0.472 0.238,-0.71c0,-0.109 0.04,-0.182 0.063,-0.256c0.119,-0.408 0.222,-0.835 0.295,-1.249c0,-0.08 0,-0.125 0.046,-0.199l0,-0.029l0,-0.181l0.023,-0.012c0.016,-0.073 0.016,-0.124 0.016,-0.198l0,-0.023c0.023,-0.068 0.046,-0.131 0.046,-0.181l0,-0.012c0.034,-0.29 0.073,-0.573 0.113,-0.841l0,-0.011l0,-0.187l0,-0.034c0.04,-0.057 0.04,-0.108 0.04,-0.17l0,-0.052c0,-0.051 0,-0.102 0.017,-0.153l0,-0.074l0,-0.13c0.023,-0.017 0.023,-0.029 0.023,-0.063l0,-0.131l0,-0.068l0,-0.153c0,-0.005 0.022,-0.017 0.022,-0.045l0,-0.154l0,-0.056c0,-0.131 0.018,-0.279 0.018,-0.392l0,-0.04c0.017,-0.057 0.017,-0.119 0.017,-0.176l0,-0.056l0,-0.131l0,-0.097l0,-0.119l0,-0.091c0.023,-0.022 0.023,-0.068 0.023,-0.108l0,-0.079l0,-0.119l0,-0.081l0,-0.129l0,-0.081l0,-0.13l0,-0.079l0,-0.148l0,-0.051l0,-0.211l0,-0.204l0,-0.056l0,-0.154l0,-0.079l0,-0.114l0,-0.079l0,-0.113l0,-0.103l0,-0.103l0,-0.085c0,-0.062 0,-0.079 -0.023,-0.13l0,-0.069l0,-0.141l0,-0.079l0,-0.131l0,-0.057c0,-0.051 0,-0.113 -0.017,-0.187l0,-0.017c0,-0.125 -0.018,-0.268 -0.018,-0.415l0,-0.028l0,-0.176c0,-0.012 -0.022,-0.04 -0.022,-0.052l0,-0.136l0,-0.068l0,-0.137c0,-0.028 0,-0.051 -0.023,-0.056l0,-0.142l0,-0.074c-0.017,-0.039 -0.017,-0.108 -0.017,-0.158l0,-0.04c0,-0.051 0,-0.114 -0.04,-0.176l0,-0.029l0,-0.176l0,-0.011c-0.04,-0.296 -0.079,-0.574 -0.113,-0.841l0,-0.022c0,-0.057 -0.023,-0.114 -0.046,-0.182l0,-0.018c0,-0.067 0,-0.129 -0.016,-0.198c0,-0.012 0,-0.012 -0.023,-0.034l0,-0.171l0,-0.016c-0.046,-0.069 -0.046,-0.131 -0.046,-0.188l0,-0.011c-0.073,-0.431 -0.176,-0.835 -0.295,-1.25c-0.023,-0.073 -0.063,-0.17 -0.063,-0.255c-0.079,-0.239 -0.153,-0.477 -0.238,-0.704c-0.199,-0.562 -0.46,-1.091 -0.738,-1.585c-0.119,-0.238 -0.261,-0.465 -0.404,-0.704c-0.317,-0.46 -0.698,-0.942 -1.078,-1.351c-0.017,-0.023 -0.034,-0.039 -0.034,-0.063c-0.182,-0.164 -0.341,-0.346 -0.523,-0.493c-1.261,-1.119 -2.777,-1.902 -4.344,-2.374c0.068,0.022 0.125,0.04 0.205,0.062c-0.12,-0.034 -0.205,-0.062 -0.318,-0.079c-2.22,-0.608 -4.452,-0.693 -6.758,-0.71c-1.959,0.114 -4.077,0.039 -6.081,0.511c-2.039,0.466 -3.958,1.471 -5.434,2.936c-1.46,1.46 -2.459,3.395 -2.913,5.406c-0.489,2.016 -0.404,4.14 -0.529,6.109c0.04,-2.049 0.199,-4.275 1.761,-6.132c1.482,-1.851 4.361,-3.338 7.921,-3.521" style="fill:#ec2327;fill-rule:nonzero;"></path><path d="M32.7793,24.3965c0.216,-3.47 -0.681,-6.905 -2.441,-9.421c0.681,1.204 1.079,2.612 1.079,4.123c0.022,4.599 -3.692,8.324 -8.314,8.313c-4.582,0.011 -8.313,-3.714 -8.296,-8.313c0,-1.511 0.398,-2.919 1.102,-4.123c-1.761,2.516 -2.686,5.951 -2.442,9.421c0.159,3.56 1.681,6.416 3.526,7.921c1.874,1.545 4.072,1.715 6.11,1.755c2.078,-0.04 4.299,-0.21 6.155,-1.755c1.84,-1.505 3.345,-4.361 3.521,-7.921" style="fill:#08609c;fill-rule:nonzero;"></path><path d="M13.4673,24.3965c-0.119,-1.67 0.04,-3.345 0.443,-4.918c0.079,-0.357 0.193,-0.727 0.318,-1.067c0.023,-0.051 0.023,-0.114 0.04,-0.148c0.022,-0.052 0.039,-0.102 0.056,-0.153l0,-0.006c0.023,-0.051 0.023,-0.107 0.063,-0.142l0,-0.023c0,-0.051 0.039,-0.091 0.039,-0.119l0,-0.034c0.023,-0.039 0.041,-0.074 0.041,-0.114c0.039,-0.005 0.039,-0.005 0.039,-0.034c0,-0.04 0.023,-0.079 0.045,-0.096l0,-0.04c0.012,-0.04 0.041,-0.085 0.041,-0.114c0,-0.011 0,-0.016 0.016,-0.028c0.029,-0.039 0.029,-0.068 0.057,-0.108l0,-0.034c0,-0.04 0.04,-0.091 0.04,-0.108c0,-0.023 0,-0.039 0.045,-0.039c0,-0.04 0,-0.085 0.04,-0.109l0,-0.028c0.017,-0.045 0.04,-0.073 0.04,-0.101c0,-0.024 0.04,-0.03 0.04,-0.041c0,-0.04 0.016,-0.056 0.034,-0.09l0,-0.046c0.022,-0.034 0.045,-0.063 0.062,-0.102c0,-0.012 0.017,-0.017 0.017,-0.028c0.046,-0.046 0.046,-0.068 0.046,-0.092c0,-0.028 0.039,-0.033 0.039,-0.057c0,-0.028 0.04,-0.044 0.04,-0.079c0,-0.022 0.017,-0.046 0.04,-0.068c0,-0.017 0.023,-0.051 0.034,-0.068c0,-0.017 0,-0.051 0.023,-0.051c0.022,-0.028 0.039,-0.051 0.062,-0.085l0,-0.046c0.045,-0.028 0.045,-0.067 0.045,-0.091c0.04,0 0.04,-0.028 0.04,-0.039c0.017,-0.028 0.029,-0.058 0.029,-0.086c0,0 0.045,-0.022 0.045,-0.039c0.023,-0.023 0.045,-0.057 0.045,-0.086c0,0 0.017,-0.028 0.035,-0.051c0,-0.016 0.039,-0.05 0.039,-0.079c0,-0.011 0.04,-0.023 0.04,-0.04c0,-0.016 0.023,-0.046 0.04,-0.096c0,0 0.023,-0.011 0.023,-0.029c0.017,-0.028 0.039,-0.062 0.056,-0.079c0,-0.028 0.017,-0.046 0.017,-0.052c0.023,-0.022 0.069,-0.056 0.069,-0.079c0.016,-0.022 0.016,-0.034 0.039,-0.051c0,-0.028 0.04,-0.068 0.08,-0.108c0,-0.034 0.039,-0.085 0.079,-0.113l0,-0.04c0,-0.023 0.04,-0.051 0.04,-0.079c0.04,-0.012 0.04,-0.024 0.04,-0.046c0.023,-0.017 0.023,-0.045 0.04,-0.057c0,-0.028 0.017,-0.04 0.033,-0.051c0,0 0.023,-0.046 0.046,-0.074c0,0 0,-0.022 0.023,-0.045c0.017,-0.017 0.017,-0.023 0.062,-0.034l0,-0.062c0.028,-0.029 0.028,-0.063 0.028,-0.063c0.023,-0.028 0.046,-0.046 0.046,-0.057c0.045,-0.023 0.045,-0.051 0.057,-0.051c0.022,-0.017 0.022,-0.039 0.022,-0.063c0.018,-0.022 0.04,-0.051 0.057,-0.062c0.023,0 0.023,-0.029 0.023,-0.034c0.017,-0.023 0.04,-0.045 0.04,-0.062c0,0 0.023,-0.034 0.045,-0.04c0.017,-0.023 0.034,-0.04 0.034,-0.057c0.046,-0.028 0.046,-0.04 0.046,-0.04c0.04,-0.028 0.04,-0.04 0.056,-0.051c0,-0.017 0.017,-0.034 0.04,-0.062c0,-0.018 0.023,-0.018 0.046,-0.046c0,0 0.017,-0.04 0.051,-0.051c0,0 0,-0.034 0.045,-0.051c0,-0.011 0,-0.034 0.04,-0.062c0,-0.006 0.022,-0.029 0.045,-0.04c0.017,-0.023 0.029,-0.028 0.029,-0.063c0,-0.005 0.045,-0.017 0.045,-0.04c0.023,-0.01 0.04,-0.028 0.057,-0.05l0.023,-0.04c0.039,-0.011 0.039,-0.035 0.079,-0.045c0.017,-0.035 0.04,-0.063 0.079,-0.097c0.023,-0.022 0.023,-0.034 0.04,-0.04c0.023,-0.023 0.046,-0.034 0.046,-0.051c0.039,-0.012 0.039,-0.023 0.056,-0.04c0.018,-0.012 0.018,-0.034 0.063,-0.057c0,0 0,-0.005 0.034,-0.034c0,-0.011 0.04,-0.022 0.04,-0.046c0.023,-0.016 0.04,-0.028 0.04,-0.033c0.016,-0.012 0.039,-0.034 0.062,-0.052c0,0 0.017,-0.022 0.057,-0.039c0,-0.011 0.039,-0.034 0.039,-0.046l0,-0.016c0.125,-0.068 0.205,-0.149 0.285,-0.211l0.033,-0.011c0.023,-0.028 0.046,-0.046 0.086,-0.062c0,0 0,-0.012 0.023,-0.023c0.016,-0.011 0.039,-0.034 0.062,-0.052c0.017,-0.01 0.034,-0.01 0.034,-0.028c0.04,-0.011 0.04,-0.034 0.079,-0.045c0,-0.011 0.023,-0.011 0.041,-0.023c0,-0.011 0.039,-0.029 0.079,-0.057c0,0 0,-0.016 0.017,-0.028c0.028,-0.011 0.045,-0.017 0.068,-0.028c0.017,-0.023 0.04,-0.035 0.04,-0.035c0.034,-0.016 0.073,-0.022 0.073,-0.034c0,-0.011 0.046,-0.022 0.046,-0.022c0.04,-0.034 0.04,-0.04 0.079,-0.051c0,-0.023 0.04,-0.034 0.04,-0.034c0.017,-0.012 0.034,-0.018 0.079,-0.034c0,-0.012 0,-0.023 0.041,-0.023c0.022,-0.006 0.039,-0.028 0.079,-0.04c0,-0.022 0,-0.028 0.034,-0.028c0,-0.012 0.045,-0.034 0.045,-0.046c0.04,0 0.04,-0.011 0.057,-0.028c0.023,-0.011 0.062,-0.017 0.08,-0.017l0.028,-0.034c0.04,-0.012 0.074,-0.023 0.074,-0.023c0.022,-0.022 0.04,-0.034 0.04,-0.034c0.04,-0.017 0.085,-0.034 0.085,-0.034c0.017,-0.012 0.034,-0.012 0.034,-0.034c0.04,0 0.079,-0.012 0.079,-0.034c0.046,0 0.046,-0.006 0.046,-0.006c0.04,-0.017 0.079,-0.029 0.096,-0.039c0.023,0 0.023,-0.018 0.04,-0.018c0.023,-0.011 0.057,-0.028 0.08,-0.039l0.022,0c0.04,-0.034 0.08,-0.034 0.114,-0.046l0,-0.022c0.045,-0.006 0.085,-0.018 0.125,-0.018l0,-0.028c0.045,-0.006 0.079,-0.006 0.119,-0.029c0.324,-0.113 0.664,-0.221 0.999,-0.3c0.046,0 0.08,-0.012 0.125,-0.012c0,-0.011 0,-0.011 0.035,-0.011c0.039,-0.012 0.039,-0.017 0.102,-0.017c0.023,0 0.023,-0.011 0.023,-0.011c0.033,0 0.056,-0.024 0.119,-0.024l0.022,-0.004c0.017,0 0.057,-0.012 0.091,-0.012c0,-0.006 0,-0.006 0.023,-0.006l0.102,0c0.023,-0.023 0.023,-0.023 0.034,-0.023l0.108,0l0.017,-0.011c0.046,0 0.08,-0.006 0.113,-0.006c0,0 0.023,-0.011 0.046,-0.011c0.023,0 0.063,0 0.119,-0.012l0,-0.01l0.159,0c0.023,0 0.046,-0.012 0.103,-0.012l0.181,0c0.04,0 0.08,-0.012 0.12,-0.012l0.437,0c0.04,0 0.079,0.012 0.136,0.012l0.187,0c0.017,0 0.08,0.012 0.097,0.012l0.142,0l0.04,0.01c0.017,0.012 0.039,0.012 0.079,0.012l0.04,0.011c0.034,0 0.073,0.006 0.119,0.006l0,0.011l0.119,0c0.018,0 0.018,0 0.04,0.023l0.102,0l0.023,0.006c0.034,0 0.074,0.012 0.119,0.012c0,0.004 0,0.004 0.023,0.004c0.017,0 0.074,0.024 0.091,0.024c0.022,0 0.039,0.011 0.039,0.011c0.046,0 0.069,0.005 0.086,0.017c0.034,0 0.034,0 0.034,0.011c0.04,0 0.079,0.012 0.125,0.012c0.358,0.079 0.675,0.187 0.999,0.3c0.04,0.023 0.074,0.023 0.119,0.029c0,0.011 0,0.011 0.04,0.028c0,0 0.04,0.012 0.085,0.018l0.017,0.022c0.023,0.012 0.057,0.012 0.097,0.046l0.04,0c0,0.011 0.04,0.028 0.079,0.039c0,0 0,0.018 0.04,0.018c0.023,0.01 0.046,0.022 0.085,0.039c0,0 0,0.006 0.04,0.006c0,0.022 0.04,0.034 0.056,0.034c0.023,0.022 0.023,0.022 0.063,0.034c0.017,0 0.034,0.017 0.057,0.034c0.022,0 0.045,0.012 0.045,0.034c0.018,0 0.057,0.011 0.097,0.023c0,0 0,0.028 0.04,0.034c0.023,0 0.039,0.017 0.062,0.017c0.011,0.017 0.034,0.028 0.034,0.028c0.046,0.012 0.062,0.034 0.062,0.046c0.04,0 0.04,0.006 0.04,0.028c0.035,0.012 0.08,0.034 0.08,0.034c0.022,0.006 0.04,0.029 0.062,0.029c0.023,0.016 0.04,0.022 0.057,0.034c0.023,0 0.046,0.011 0.046,0.034c0.034,0.011 0.034,0.017 0.079,0.051c0,0 0.034,0.011 0.034,0.022c0.023,0.012 0.046,0.018 0.062,0.034c0.018,0 0.018,0.012 0.057,0.035c0,0.011 0.046,0.017 0.068,0.028c0.017,0.012 0.017,0.028 0.04,0.028c0.017,0.028 0.051,0.046 0.051,0.057c0.046,0.012 0.046,0.012 0.046,0.023c0.04,0.011 0.04,0.034 0.074,0.045c0,0.018 0.039,0.018 0.039,0.028c0.023,0.018 0.046,0.041 0.085,0.052c0,0.011 0,0.023 0.023,0.023c0.017,0.016 0.063,0.034 0.08,0.056c0,0 0.017,0.006 0.017,0.017c0.079,0.062 0.159,0.143 0.284,0.211l0,0.011c0,0.017 0.04,0.04 0.051,0.051c0.022,0.017 0.022,0.029 0.022,0.039c0.017,0.029 0.04,0.04 0.08,0.052c0,0.005 0,0.017 0.04,0.033c0,0.024 0.039,0.035 0.039,0.046c0.046,0.029 0.046,0.034 0.046,0.034c0.04,0.023 0.04,0.045 0.04,0.057c0.039,0.017 0.039,0.028 0.057,0.04c0.022,0.017 0.062,0.028 0.062,0.051c0.023,0.006 0.04,0.018 0.04,0.04c0.017,0.017 0.039,0.034 0.062,0.051c0.017,0.011 0.017,0.022 0.04,0.046c0.017,0.01 0.017,0.016 0.057,0.045c0,0 0.022,0.034 0.039,0.04c0,0.022 0.023,0.04 0.04,0.05c0.017,0.023 0.017,0.035 0.04,0.04c0.017,0.035 0.04,0.04 0.04,0.063c0,0 0.017,0.034 0.062,0.04c0,0.028 0.017,0.051 0.017,0.062c0.023,0.017 0.04,0.04 0.04,0.051c0.023,0.011 0.04,0.029 0.057,0.051c0.022,0.028 0.022,0.028 0.045,0.046c0.023,0.028 0.04,0.045 0.04,0.062c0,0 0.017,0.023 0.04,0.039c0.017,0.012 0.017,0.024 0.039,0.052c0.023,0.017 0.023,0.034 0.063,0.057c0,0 0,0.028 0.039,0.04c0,0.017 0,0.039 0.04,0.062c0,0.005 0.04,0.034 0.04,0.034c0,0.011 0.023,0.04 0.034,0.062c0,0.024 0.023,0.046 0.023,0.063c0.023,0 0.023,0.028 0.046,0.051c0.016,0.011 0.039,0.029 0.056,0.045c0,0.012 0,0.046 0.034,0.063c0,0 0,0.034 0.023,0.074c0.022,0.011 0.045,0.017 0.045,0.034c0.017,0.023 0.017,0.045 0.017,0.045c0.04,0.028 0.04,0.063 0.04,0.063c0.023,0.022 0.04,0.034 0.04,0.062c0.017,0.012 0.039,0.04 0.039,0.057c0.04,0.022 0.04,0.034 0.04,0.034c0,0.04 0.023,0.068 0.04,0.091l0.023,0.028c0.017,0.04 0.057,0.091 0.057,0.125c0.039,0.04 0.039,0.08 0.085,0.108c0.017,0.017 0.034,0.029 0.034,0.051c0.022,0.023 0.045,0.057 0.045,0.079c0,0.006 0.017,0.024 0.04,0.052c0,0.017 0.034,0.051 0.034,0.079c0.045,0.018 0.045,0.029 0.045,0.029c0,0.05 0.04,0.08 0.04,0.096c0.017,0.017 0.034,0.029 0.034,0.04c0,0.029 0.04,0.063 0.04,0.079c0.023,0.023 0.04,0.04 0.04,0.04c0,0.04 0.045,0.074 0.045,0.097c0.017,0.017 0.04,0.039 0.04,0.039c0,0.028 0.017,0.058 0.04,0.086c0,0.011 0.017,0.039 0.034,0.051c0,0 0.028,0.051 0.039,0.079l0,0.046c0.046,0.034 0.046,0.057 0.091,0.085l0,0.051c0.012,0.017 0.034,0.051 0.034,0.068c0.023,0.022 0.046,0.046 0.046,0.068c0,0.035 0.034,0.051 0.034,0.079c0,0.024 0.023,0.029 0.023,0.057c0.022,0.024 0.045,0.046 0.045,0.092c0.017,0.011 0.017,0.016 0.017,0.028c0.04,0.039 0.04,0.068 0.057,0.096c0,0 0.017,0.017 0.017,0.052c0,0.034 0.04,0.05 0.04,0.09c0.022,0.011 0.022,0.017 0.04,0.041c0,0.028 0,0.056 0.022,0.101c0.017,0.012 0.017,0.018 0.017,0.028c0.04,0.024 0.04,0.069 0.04,0.109c0.045,0 0.045,0.016 0.045,0.039c0,0.017 0,0.068 0.04,0.108c0,0.012 0.017,0.023 0.017,0.034c0.017,0.04 0.017,0.069 0.04,0.108c0.017,0.012 0.017,0.017 0.017,0.028c0,0.029 0.04,0.074 0.04,0.114c0,0.011 0,0.023 0.045,0.04c0,0.017 0,0.056 0.017,0.096c0,0.029 0.023,0.029 0.023,0.029c0,0.045 0.017,0.08 0.04,0.119l0,0.034c0.022,0.028 0.039,0.068 0.062,0.119l0,0.023c0.017,0.035 0.017,0.091 0.057,0.142l0,0.006c0,0.051 0.017,0.101 0.045,0.131l0,0.022c0,0.034 0.034,0.097 0.034,0.136l0,0.012c0.119,0.34 0.239,0.71 0.319,1.067c0.402,1.573 0.556,3.248 0.442,4.918c-0.176,3.56 -1.681,6.416 -3.52,7.921c-1.857,1.545 -4.078,1.715 -6.156,1.755c1.999,-0.109 4.112,-0.051 6.133,-0.539c2.01,-0.444 3.946,-1.449 5.4,-2.919c1.459,-1.46 2.498,-3.385 2.936,-5.406c0.482,-2.033 0.42,-4.117 0.522,-6.11c0,-2.277 -0.079,-4.509 -0.721,-6.746l0,-0.018c0,-0.084 -0.04,-0.181 -0.079,-0.278c0.039,0.069 0.039,0.125 0.079,0.194c-0.477,-1.584 -1.238,-3.101 -2.357,-4.338c-0.175,-0.177 -0.357,-0.347 -0.516,-0.535c-0.029,-0.011 -0.046,-0.011 -0.046,-0.028c-0.437,-0.403 -0.874,-0.766 -1.397,-1.073c-0.198,-0.159 -0.437,-0.29 -0.681,-0.414c-0.494,-0.296 -1.039,-0.518 -1.556,-0.734c-0.244,-0.079 -0.482,-0.164 -0.721,-0.22l0,-0.024c-0.102,-0.01 -0.176,-0.033 -0.261,-0.067c-0.42,-0.108 -0.818,-0.199 -1.261,-0.278l0,-0.012c-0.062,0 -0.113,-0.023 -0.198,-0.034c-0.075,0 -0.12,-0.017 -0.199,-0.029l-0.017,0c-0.063,-0.01 -0.125,-0.016 -0.188,-0.04l-0.039,0c-0.034,-0.005 -0.12,-0.005 -0.154,-0.022l-0.04,0c-0.283,-0.057 -0.562,-0.085 -0.84,-0.113c-0.057,-0.012 -0.125,-0.023 -0.199,-0.023l-0.023,-0.012c-0.056,0 -0.096,0 -0.158,-0.005l-0.063,0c-0.039,-0.011 -0.079,-0.011 -0.136,-0.011l-0.057,0c-0.04,-0.018 -0.125,-0.018 -0.165,-0.018l-0.045,0c-0.074,0 -0.108,-0.022 -0.153,-0.022l-0.062,0c-0.041,0 -0.097,-0.012 -0.143,-0.012l-0.057,0l-0.158,0c-0.023,0 -0.023,-0.011 -0.063,-0.011c-0.12,-0.023 -0.239,-0.023 -0.397,-0.023l-0.017,0l-0.182,0l-0.04,-0.005c-0.046,0 -0.102,0 -0.159,-0.006l-0.085,0l-0.119,0l-0.08,0l-0.119,0l-0.086,0l-0.113,0c-0.04,0 -0.062,-0.012 -0.079,-0.012l-0.12,0l-0.079,0c-0.046,-0.011 -0.08,0 -0.119,-0.011l-0.085,0l-0.142,0l-0.097,0l-0.199,0l-0.198,0l-0.04,0l-0.142,0l-0.08,0c-0.039,0 -0.096,0.011 -0.142,0.011l-0.074,0l-0.125,0c-0.016,0 -0.056,0.012 -0.079,0.012l-0.113,0l-0.086,0l-0.119,0l-0.079,0l-0.12,0l-0.079,0c-0.046,0.006 -0.079,0.006 -0.165,0.006l-0.039,0.005l-0.199,0c-0.142,0 -0.278,0 -0.398,0.023c-0.04,0 -0.04,0.011 -0.057,0.011l-0.164,0l-0.063,0c-0.033,0 -0.079,0.012 -0.158,0.012l-0.041,0c-0.056,0 -0.102,0.022 -0.153,0.022l-0.045,0c-0.04,0 -0.096,0 -0.159,0.018l-0.04,0c-0.062,0 -0.119,0 -0.159,0.011l-0.04,0c-0.079,0.005 -0.125,0.005 -0.164,0.005c-0.04,0 -0.04,0.012 -0.04,0.012c-0.079,0 -0.159,0.011 -0.216,0.023c-0.261,0.028 -0.539,0.056 -0.823,0.113l-0.04,0c-0.039,0.017 -0.119,0.017 -0.159,0.022l-0.034,0c-0.062,0.024 -0.125,0.03 -0.171,0.04l-0.033,0c-0.058,0.012 -0.125,0.029 -0.182,0.029l-0.017,0c-0.086,0.011 -0.125,0.034 -0.205,0.034l-0.023,0.012c-0.414,0.079 -0.811,0.17 -1.237,0.278c-0.08,0.034 -0.131,0.057 -0.239,0.067l0,0.024c-0.255,0.056 -0.499,0.141 -0.715,0.22c-0.563,0.216 -1.102,0.438 -1.596,0.734c-0.227,0.124 -0.471,0.255 -0.704,0.414c-0.46,0.307 -0.92,0.67 -1.357,1.073c0,0.017 -0.023,0.017 -0.023,0.017c-0.181,0.199 -0.38,0.369 -0.539,0.546c-1.119,1.237 -1.88,2.759 -2.34,4.338c0.017,-0.069 0.04,-0.125 0.057,-0.194c-0.04,0.086 -0.057,0.194 -0.08,0.278l0,0.018c-0.635,2.237 -0.721,4.469 -0.721,6.746c0.125,1.993 0.04,4.077 0.529,6.11c0.454,2.021 1.453,3.946 2.913,5.406c1.476,1.47 3.395,2.475 5.434,2.919c2.004,0.488 4.122,0.43 6.081,0.539c-2.038,-0.04 -4.236,-0.21 -6.11,-1.755c-1.845,-1.505 -3.367,-4.361 -3.526,-7.921" style="fill:#44abe0;fill-rule:nonzero;"></path><path d="M28.4639,39.376c-3.526,-0.216 -6.916,0.704 -9.455,2.425c1.216,-0.676 2.618,-1.063 4.095,-1.063c4.622,-0.028 8.336,3.708 8.313,8.302c0.023,4.583 -3.691,8.325 -8.313,8.302c-1.477,-0.011 -2.879,-0.38 -4.095,-1.073c2.539,1.732 5.929,2.652 9.455,2.424c3.521,-0.175 6.394,-1.663 7.87,-3.526c1.562,-1.84 1.721,-4.06 1.761,-6.127c-0.04,-2.066 -0.199,-4.287 -1.761,-6.138c-1.476,-1.851 -4.349,-3.333 -7.87,-3.526" style="fill:#0f6734;fill-rule:nonzero;"></path><path d="M28.4639,58.6934c-1.721,0.114 -3.401,-0.057 -4.963,-0.454c-0.357,-0.085 -0.715,-0.188 -1.073,-0.301c-0.046,-0.016 -0.085,-0.04 -0.142,-0.04c-0.062,-0.028 -0.108,-0.051 -0.142,-0.057c0,0 -0.017,0 -0.034,-0.01c-0.045,0 -0.085,-0.03 -0.13,-0.04l0,-0.012c-0.052,-0.023 -0.097,-0.023 -0.114,-0.051l-0.04,0c-0.046,-0.022 -0.079,-0.028 -0.119,-0.062l-0.017,0c-0.063,-0.018 -0.108,-0.018 -0.125,-0.035l-0.017,-0.011c-0.085,-0.029 -0.085,-0.039 -0.125,-0.057c0,-0.006 -0.034,-0.006 -0.034,-0.016c-0.046,-0.012 -0.08,-0.018 -0.125,-0.035c-0.023,-0.011 -0.023,-0.011 -0.04,-0.011c-0.023,-0.023 -0.04,-0.039 -0.079,-0.051c-0.04,0 -0.04,-0.012 -0.04,-0.012c-0.04,-0.016 -0.085,-0.028 -0.12,-0.051c0,-0.011 -0.016,-0.011 -0.039,-0.022c-0.017,-0.018 -0.04,-0.034 -0.08,-0.046c-0.022,-0.011 -0.039,-0.011 -0.039,-0.028c-0.04,-0.023 -0.086,-0.023 -0.103,-0.04c-0.022,0 -0.022,-0.023 -0.062,-0.023c0,-0.016 -0.04,-0.028 -0.074,-0.04c0,-0.011 -0.045,-0.016 -0.045,-0.028c-0.034,-0.005 -0.08,-0.029 -0.08,-0.039c-0.04,-0.012 -0.04,-0.024 -0.04,-0.024c-0.039,-0.016 -0.079,-0.028 -0.119,-0.045c0,0 -0.017,-0.022 -0.04,-0.022c-0.022,-0.018 -0.039,-0.034 -0.073,-0.052c0,-0.011 -0.046,-0.011 -0.046,-0.016c-0.039,-0.023 -0.056,-0.035 -0.079,-0.069c0,0 -0.046,0 -0.046,-0.016c-0.034,-0.012 -0.074,-0.024 -0.074,-0.04c-0.039,-0.012 -0.039,-0.012 -0.085,-0.029c-0.017,-0.017 -0.034,-0.028 -0.056,-0.051c-0.018,-0.005 -0.04,-0.011 -0.04,-0.011c-0.04,-0.012 -0.057,-0.046 -0.097,-0.046c0,-0.023 -0.045,-0.045 -0.045,-0.045c-0.04,-0.012 -0.04,-0.023 -0.08,-0.034l-0.034,-0.034c-0.045,-0.017 -0.085,-0.04 -0.085,-0.045c-0.04,-0.012 -0.04,-0.024 -0.074,-0.04c0,0 -0.039,-0.023 -0.068,-0.04c0,0 -0.017,-0.029 -0.017,-0.035c-0.04,-0.016 -0.079,-0.05 -0.119,-0.067c0,-0.012 0,-0.012 -0.023,-0.018c-0.056,-0.022 -0.079,-0.062 -0.114,-0.074c-0.062,-0.028 -0.062,-0.056 -0.124,-0.067c0,0 -0.018,-0.024 -0.018,-0.034c-0.039,-0.012 -0.039,-0.029 -0.079,-0.04c-0.04,-0.012 -0.04,-0.017 -0.04,-0.017c-0.045,-0.028 -0.045,-0.04 -0.085,-0.046c-0.012,-0.011 -0.034,-0.022 -0.056,-0.028c-0.018,-0.023 -0.04,-0.023 -0.058,-0.057c-0.028,0 -0.045,-0.022 -0.045,-0.04c0,0 -0.04,-0.006 -0.079,-0.017c0,-0.022 -0.018,-0.028 -0.04,-0.04c-0.023,-0.011 -0.04,-0.016 -0.04,-0.04c0,0 -0.04,-0.033 -0.057,-0.045c-0.016,-0.005 -0.039,-0.017 -0.062,-0.04c-0.017,-0.01 -0.04,-0.022 -0.04,-0.022c-0.039,-0.006 -0.039,-0.034 -0.062,-0.051c-0.023,-0.012 -0.023,-0.023 -0.057,-0.034c0,-0.018 -0.04,-0.028 -0.04,-0.04c-0.017,-0.012 -0.04,-0.022 -0.062,-0.051c0,0 -0.04,-0.017 -0.057,-0.028c0,-0.018 -0.023,-0.04 -0.04,-0.052c-0.04,-0.016 -0.04,-0.028 -0.085,-0.039c0,-0.023 0,-0.04 -0.04,-0.052c0,-0.01 -0.04,-0.022 -0.04,-0.045c0,0 -0.039,-0.023 -0.039,-0.028c-0.04,-0.023 -0.04,-0.04 -0.057,-0.052c-0.023,-0.01 -0.023,-0.016 -0.062,-0.056l-0.035,-0.029c0,-0.016 -0.045,-0.034 -0.045,-0.034c-0.017,-0.034 -0.034,-0.04 -0.034,-0.04c-0.04,-0.022 -0.04,-0.057 -0.063,-0.067c0,0 -0.022,-0.029 -0.039,-0.029c-0.023,-0.028 -0.023,-0.034 -0.063,-0.057c-0.039,-0.029 -0.039,-0.057 -0.079,-0.102c0,-0.011 -0.04,-0.017 -0.063,-0.04c0,-0.006 -0.016,-0.028 -0.034,-0.045c0,0 -0.022,-0.023 -0.045,-0.046c-0.023,-0.011 -0.023,-0.034 -0.023,-0.034c-0.028,-0.034 -0.028,-0.062 -0.074,-0.062c0,-0.011 -0.04,-0.039 -0.04,-0.057c0,-0.012 -0.045,-0.034 -0.045,-0.034c0,-0.028 -0.034,-0.051 -0.034,-0.073c0,0 -0.04,-0.006 -0.04,-0.029c-0.022,-0.017 -0.045,-0.046 -0.062,-0.057l0,-0.029c-0.079,-0.085 -0.159,-0.17 -0.221,-0.26l0,-0.012c-0.023,-0.028 -0.063,-0.051 -0.08,-0.073l0,-0.046c-0.034,-0.012 -0.034,-0.057 -0.08,-0.063c0,-0.006 0,-0.006 -0.023,-0.04c0,-0.016 -0.022,-0.039 -0.039,-0.067c0,0 -0.011,-0.018 -0.011,-0.034c0,-0.029 -0.046,-0.057 -0.046,-0.075c-0.017,-0.01 -0.017,-0.022 -0.039,-0.05c0,-0.012 -0.023,-0.046 -0.046,-0.063c0,-0.017 0,-0.028 -0.034,-0.04c0,-0.028 -0.017,-0.04 -0.04,-0.073l0,-0.034c-0.017,-0.034 -0.04,-0.052 -0.08,-0.069l0,-0.05c0,-0.024 -0.039,-0.052 -0.039,-0.052c0,-0.028 -0.04,-0.039 -0.04,-0.063c0,-0.016 -0.04,-0.045 -0.04,-0.067c0,-0.012 -0.022,-0.034 -0.022,-0.034c-0.017,-0.034 -0.017,-0.058 -0.04,-0.08c0,-0.017 0,-0.029 -0.017,-0.039c0,-0.024 -0.046,-0.046 -0.046,-0.075c0,-0.011 -0.022,-0.034 -0.022,-0.034c-0.017,-0.028 -0.017,-0.056 -0.034,-0.091c-0.023,-0.022 -0.023,-0.022 -0.023,-0.05c-0.017,-0.012 -0.04,-0.052 -0.04,-0.075c0,-0.011 -0.017,-0.022 -0.017,-0.022c-0.022,-0.04 -0.022,-0.068 -0.022,-0.091c0,-0.012 -0.018,-0.022 -0.04,-0.028c0,-0.04 0,-0.063 -0.04,-0.091l0,-0.04c-0.017,-0.04 -0.017,-0.063 -0.034,-0.097l0,-0.022c-0.023,-0.018 -0.046,-0.063 -0.046,-0.091c-0.023,-0.012 -0.023,-0.012 -0.023,-0.028c-0.022,-0.023 -0.022,-0.063 -0.033,-0.091l-0.017,-0.018c0,-0.034 0,-0.079 -0.04,-0.107l0,-0.006c-0.131,-0.318 -0.204,-0.664 -0.284,-1.011l0,-0.006c0,-0.04 -0.045,-0.085 -0.045,-0.125l0,-0.01c0,-0.029 0,-0.063 -0.018,-0.12l0,-0.029c0,-0.016 -0.017,-0.051 -0.017,-0.079l0,-0.04c-0.022,-0.034 -0.022,-0.067 -0.022,-0.097l-0.023,-0.033l0,-0.097l0,-0.034c0,-0.022 -0.017,-0.08 -0.017,-0.096l0,-0.035c-0.017,-0.04 -0.017,-0.09 -0.017,-0.113l0,-0.046l0,-0.096l0,-0.039c0,-0.024 -0.023,-0.063 -0.04,-0.097l0,-0.034l0,-0.091l0,-0.051l0,-0.074l0,-0.023l0,-0.011l0,-0.035l0,-0.135l0,-0.034c0,-0.069 -0.022,-0.103 -0.022,-0.171c0,-0.074 0.022,-0.114 0.022,-0.176l0,-0.028l0,-0.154l0,-0.028l0,-0.119l0,-0.023l0,-0.119l0,-0.029c0.017,-0.017 0.04,-0.045 0.04,-0.102l0,-0.028l0,-0.114l0,-0.017c0,-0.04 0,-0.074 0.017,-0.119l0,-0.018c0,-0.033 0.017,-0.073 0.017,-0.113l0,-0.028l0,-0.103c0,-0.01 0.023,-0.016 0.023,-0.028c0,-0.039 0,-0.067 0.022,-0.097l0,-0.033c0,-0.04 0.017,-0.068 0.017,-0.108l0,-0.023c0.018,-0.04 0.018,-0.068 0.018,-0.108l0,-0.023c0,-0.045 0.045,-0.073 0.045,-0.119l0,-0.011c0.08,-0.335 0.153,-0.665 0.284,-0.994c0.04,-0.051 0.04,-0.08 0.04,-0.108c0.017,-0.017 0.017,-0.028 0.017,-0.028c0.011,-0.039 0.011,-0.074 0.033,-0.097c0,-0.005 0,-0.005 0.023,-0.023c0,-0.034 0.023,-0.068 0.046,-0.084l0,-0.041c0.017,-0.022 0.017,-0.05 0.034,-0.079l0,-0.046c0.04,-0.016 0.04,-0.044 0.04,-0.079c0.022,-0.017 0.04,-0.017 0.04,-0.034c0,-0.034 0,-0.056 0.022,-0.085c0,-0.022 0.017,-0.028 0.017,-0.052c0,-0.028 0.023,-0.039 0.04,-0.067l0,-0.028c0.04,-0.04 0.04,-0.069 0.057,-0.091c0,0 0.022,-0.018 0.022,-0.04c0,-0.028 0.046,-0.046 0.046,-0.085c0.017,-0.006 0.017,-0.023 0.017,-0.034c0.023,-0.018 0.023,-0.052 0.04,-0.069c0,-0.022 0.022,-0.022 0.022,-0.04c0,-0.016 0.04,-0.05 0.04,-0.073c0,-0.023 0.04,-0.04 0.04,-0.04c0,-0.028 0.039,-0.051 0.039,-0.079l0,-0.028c0.04,-0.034 0.063,-0.052 0.08,-0.086l0,-0.029c0.023,-0.028 0.04,-0.05 0.04,-0.079c0.034,-0.011 0.034,-0.04 0.034,-0.04c0.023,-0.028 0.046,-0.056 0.046,-0.079c0.022,-0.017 0.022,-0.017 0.039,-0.04c0,-0.016 0.046,-0.046 0.046,-0.062c0,-0.012 0.011,-0.023 0.011,-0.04c0.017,-0.029 0.039,-0.057 0.039,-0.057c0.023,-0.017 0.023,-0.034 0.023,-0.034c0.046,-0.039 0.046,-0.068 0.08,-0.085l0,-0.04c0,0 0.057,-0.039 0.08,-0.063l0,-0.028c0.062,-0.079 0.142,-0.164 0.221,-0.267l0,-0.022c0.017,0 0.04,-0.028 0.062,-0.04c0,-0.028 0.023,-0.04 0.04,-0.057c0,-0.011 0.034,-0.046 0.034,-0.056c0,0 0.045,-0.018 0.045,-0.046c0,0 0.04,-0.029 0.04,-0.045c0.046,-0.012 0.046,-0.034 0.063,-0.057c0,0 0.011,-0.04 0.034,-0.04c0.023,-0.022 0.023,-0.034 0.045,-0.04c0.018,-0.022 0.034,-0.04 0.034,-0.062c0.023,-0.011 0.063,-0.029 0.063,-0.045c0,-0.012 0.04,-0.024 0.04,-0.046c0.016,-0.023 0.039,-0.023 0.039,-0.039c0.04,-0.018 0.04,-0.03 0.063,-0.04c0.017,-0.018 0.017,-0.029 0.039,-0.057c0.023,-0.018 0.023,-0.023 0.063,-0.034c0,-0.023 0.017,-0.034 0.034,-0.057c0,-0.006 0.045,-0.017 0.045,-0.034c0,-0.012 0.035,-0.034 0.035,-0.034c0.039,-0.034 0.039,-0.051 0.062,-0.051c0.017,-0.018 0.017,-0.04 0.057,-0.04c0,-0.022 0.023,-0.04 0.039,-0.057c0,-0.023 0.04,-0.028 0.04,-0.056c0.04,-0.006 0.04,-0.018 0.04,-0.03c0.045,-0.004 0.045,-0.039 0.085,-0.045c0.017,-0.011 0.04,-0.011 0.04,-0.034c0.017,-0.022 0.034,-0.034 0.057,-0.056c0.022,0 0.045,-0.023 0.062,-0.035c0,-0.016 0.04,-0.016 0.04,-0.04c0.034,-0.005 0.034,-0.016 0.057,-0.039c0.023,0 0.023,-0.034 0.062,-0.04c0,-0.022 0.023,-0.028 0.04,-0.028c0.023,-0.018 0.046,-0.028 0.062,-0.04c0.017,-0.017 0.017,-0.022 0.017,-0.022c0.04,-0.029 0.057,-0.046 0.08,-0.057c0.022,-0.006 0.04,-0.018 0.04,-0.028c0.039,-0.018 0.062,-0.029 0.079,-0.052c0,-0.006 0.017,-0.006 0.045,-0.029c0.018,-0.01 0.04,-0.034 0.058,-0.034c0.022,-0.01 0.044,-0.016 0.056,-0.034c0.04,-0.011 0.04,-0.022 0.085,-0.045c0,-0.006 0,-0.022 0.04,-0.034c0.04,-0.006 0.04,-0.028 0.079,-0.034l0.018,-0.023c0.062,-0.017 0.062,-0.046 0.124,-0.085c0.035,-0.023 0.058,-0.045 0.114,-0.074c0.023,-0.022 0.023,-0.028 0.023,-0.028c0.04,-0.012 0.079,-0.028 0.119,-0.046c0,-0.017 0.017,-0.022 0.017,-0.033c0.029,-0.012 0.068,-0.046 0.068,-0.046c0.034,-0.017 0.034,-0.028 0.074,-0.04c0,0 0.04,-0.033 0.085,-0.045c0,-0.012 0.017,-0.018 0.017,-0.018c0.057,-0.016 0.057,-0.039 0.097,-0.05c0,-0.006 0.045,-0.029 0.045,-0.029c0.04,-0.028 0.057,-0.028 0.097,-0.062c0,0 0.022,-0.012 0.04,-0.012c0.022,-0.028 0.039,-0.039 0.056,-0.057c0.046,-0.005 0.046,-0.005 0.085,-0.016c0,-0.023 0.04,-0.04 0.074,-0.063c0,0 0,-0.011 0.046,-0.022c0.023,-0.012 0.04,-0.034 0.079,-0.034c0,0 0.046,-0.018 0.046,-0.035c0.034,-0.011 0.051,-0.022 0.073,-0.04c0.023,-0.01 0.04,-0.01 0.04,-0.034c0.04,-0.01 0.08,-0.028 0.119,-0.039c0,-0.012 0,-0.012 0.04,-0.029c0,0 0.046,-0.023 0.08,-0.033c0,-0.018 0.045,-0.029 0.045,-0.04c0.034,-0.012 0.074,-0.023 0.074,-0.046c0.04,0 0.04,-0.011 0.062,-0.011c0.017,-0.012 0.063,-0.034 0.103,-0.04c0,-0.022 0.017,-0.022 0.039,-0.04c0.04,0 0.063,-0.017 0.08,-0.028c0.023,-0.006 0.039,-0.006 0.039,-0.006c0.035,-0.023 0.08,-0.045 0.12,-0.051c0,-0.012 0,-0.012 0.04,-0.034c0.039,-0.011 0.056,-0.023 0.079,-0.034c0.017,-0.005 0.017,-0.017 0.04,-0.029c0.045,0 0.079,-0.01 0.125,-0.022c0,-0.012 0.034,-0.012 0.034,-0.012c0.04,-0.034 0.04,-0.045 0.125,-0.057c0,0 0,-0.01 0.017,-0.022c0.017,-0.006 0.062,-0.028 0.102,-0.04c0.023,-0.011 0.04,-0.011 0.04,-0.011c0.04,-0.023 0.073,-0.023 0.119,-0.046c0,0 0,-0.006 0.04,-0.006c0.017,-0.01 0.062,-0.022 0.114,-0.034l0,-0.016c0.045,-0.012 0.085,-0.023 0.13,-0.051c0.017,0 0.034,-0.012 0.034,-0.012c0.034,-0.022 0.08,-0.028 0.119,-0.04l0.023,0c0.057,-0.034 0.096,-0.045 0.142,-0.051c0.358,-0.119 0.716,-0.221 1.073,-0.318c1.562,-0.38 3.242,-0.539 4.963,-0.442c3.521,0.193 6.394,1.674 7.87,3.526c1.562,1.851 1.721,4.071 1.761,6.138c-0.103,-1.998 -0.04,-4.082 -0.523,-6.11c-0.437,-2.015 -1.476,-3.952 -2.936,-5.394c-1.453,-1.483 -3.39,-2.493 -5.4,-2.942c-2.021,-0.494 -4.133,-0.42 -6.132,-0.522c-2.238,0 -4.515,0.079 -6.712,0.716c-0.119,0.016 -0.204,0.045 -0.301,0.067c0.051,-0.011 0.119,-0.022 0.182,-0.045c-1.585,0.454 -3.123,1.233 -4.322,2.351c-0.181,0.171 -0.363,0.335 -0.528,0.511c-0.034,0.017 -0.034,0.028 -0.034,0.028l0,0.012c-0.414,0.425 -0.761,0.885 -1.102,1.379c-0.13,0.222 -0.278,0.438 -0.414,0.676c-0.284,0.511 -0.522,1.039 -0.727,1.579c-0.074,0.239 -0.153,0.493 -0.216,0.733l0,0.01c-0.022,0.081 -0.062,0.148 -0.079,0.228c-0.102,0.42 -0.221,0.823 -0.295,1.237l0,0.012c0,0.091 -0.023,0.131 -0.051,0.199l0,0.033c0,0.046 -0.012,0.109 -0.012,0.166l-0.023,0.034c0,0.068 0,0.119 -0.022,0.193l0,0.017c-0.023,0.056 -0.023,0.125 -0.034,0.181l0,0.029c-0.023,0.278 -0.069,0.55 -0.102,0.829l0,0.011c0,0.057 0,0.125 -0.023,0.188l0,0.045c-0.017,0.056 -0.017,0.102 -0.017,0.165l0,0.244c0,0.068 0,0.097 -0.04,0.142l0,0.482c0,0.052 -0.023,0.108 -0.023,0.159c-0.022,0.024 -0.022,0.024 -0.022,0.04l0,0.614c0,0.016 -0.017,0.045 -0.017,0.045l0,0.352c-0.023,0.028 -0.023,0.046 -0.023,0.079l0,2.442c0,0.035 0,0.057 0.023,0.085l0,0.347c0.017,0.017 0.017,0.034 0.017,0.045l0,0.619c0,0.023 0,0.034 0.022,0.051c0,0.052 0.023,0.103 0.023,0.147l0,0.478c0.04,0.034 0.04,0.097 0.04,0.147l0,0.256c0,0.063 0,0.102 0.017,0.164l0,0.029c0.023,0.062 0.023,0.136 0.023,0.199l0,0.006c0.033,0.284 0.079,0.551 0.102,0.835l0,0.01c0.011,0.075 0.011,0.137 0.034,0.21l0,0.012c0.022,0.057 0.022,0.125 0.022,0.176c0,0 0.023,0.028 0.023,0.04c0,0.051 0.012,0.113 0.012,0.17l0,0.028c0.028,0.063 0.051,0.12 0.051,0.188l0,0.006c0.074,0.431 0.193,0.835 0.295,1.244c0.017,0.095 0.057,0.175 0.079,0.255c0.063,0.238 0.142,0.488 0.216,0.732c0.205,0.517 0.443,1.067 0.727,1.573c0.136,0.244 0.284,0.454 0.414,0.688c0.341,0.482 0.688,0.936 1.102,1.362c0,0 0,0.028 0.034,0.051c0.165,0.171 0.347,0.341 0.528,0.5c1.199,1.119 2.737,1.896 4.322,2.356c-0.063,-0.006 -0.131,-0.016 -0.182,-0.045c0.097,0.029 0.182,0.045 0.301,0.079c2.197,0.631 4.474,0.71 6.712,0.71c1.999,-0.113 4.111,-0.04 6.132,-0.534c2.01,-0.448 3.947,-1.447 5.4,-2.918c1.46,-1.466 2.499,-3.401 2.936,-5.412c0.483,-2.021 0.42,-4.111 0.523,-6.104c-0.04,2.067 -0.199,4.287 -1.761,6.127c-1.476,1.863 -4.349,3.35 -7.87,3.526" style="fill:#12a650;fill-rule:nonzero;"></path></g></svg>